<svg width="60" height="61" viewBox="0 0 60 61" xmlns="http://www.w3.org/2000/svg">
<path fill-rule="evenodd" clip-rule="evenodd" d="M10 5.23267H50C52.7614 5.23267 55 7.47124 55 10.2327V50.2327C55 52.9941 52.7614 55.2327 50 55.2327H10C7.23858 55.2327 5 52.9941 5 50.2327V10.2327C5 7.47124 7.23858 5.23267 10 5.23267ZM10 10.2327V50.2327H50V10.2327H10ZM27.8326 30.2436H32.5V45.2327H37.5V30.2436H42.456V25.2436H37.5V22.7326C37.5 21.3519 38.6193 20.2326 40 20.2326H42.5V15.2326H40C35.8579 15.2326 32.5 18.5905 32.5 22.7326V25.2436H27.8326V30.2436Z" />
</svg>
