<svg width="116" height="116" viewBox="0 0 116 116" fill="none" xmlns="http://www.w3.org/2000/svg">
<g clip-path="url(#clip0)">
<path d="M53.1653 111.091C23.852 111.091 0 87.2398 0 57.9265C0 28.6133 23.852 4.76123 53.1653 4.76123C63.3585 4.76123 73.2756 7.66574 81.8449 13.1659C83.5273 14.2491 84.0202 16.4917 82.937 18.1784C81.8502 19.8652 79.6121 20.3528 77.9253 19.2705C70.5304 14.519 61.9664 12.011 53.1653 12.011C27.8486 12.011 7.24977 32.6098 7.24977 57.9265C7.24977 83.2423 27.8486 103.841 53.1653 103.841C78.4811 103.841 99.0799 83.2423 99.0799 57.9265C99.0799 56.4132 99.0074 54.9149 98.8675 53.4414C98.6746 51.4449 100.134 49.6758 102.125 49.4829C104.126 49.2988 105.89 50.7493 106.084 52.7405C106.247 54.4468 106.33 56.1769 106.33 57.9265C106.33 87.2398 82.4786 111.091 53.1653 111.091Z" fill="#F1F1F1"/>
<path d="M59.2062 70.0091C58.2787 70.0091 57.3504 69.656 56.645 68.9463L34.8957 47.1969C33.4797 45.7801 33.4797 43.4844 34.8957 42.0685C36.3117 40.6525 38.6073 40.6525 40.0233 42.0685L59.2115 61.2567L109.809 10.6578C111.226 9.24183 113.522 9.24183 114.938 10.6578C116.354 12.0738 116.354 14.3694 114.938 15.7854L61.7726 68.9507C61.062 69.656 60.1345 70.0091 59.2062 70.0091Z" fill="#F1F1F1"/>
</g>
<defs>
<clipPath id="clip0">
<rect width="116" height="116" fill="white"/>
</clipPath>
</defs>
</svg>
