<svg width="116" height="116" viewBox="0 0 116 116" fill="none" xmlns="http://www.w3.org/2000/svg">
<g clip-path="url(#clip0)">
<path d="M115.737 51.1113L105.62 47.7668C105.204 45.6136 104.637 43.4937 103.929 41.4353L111.033 33.4694L110.339 32.0411C109.138 29.5682 107.745 27.164 106.203 24.8948L105.313 23.5849L94.9117 25.7499C93.4668 24.0895 91.9059 22.5309 90.2502 21.086L92.4128 10.6851L91.1029 9.79449C88.8195 8.243 86.4153 6.85259 83.9518 5.65877L82.5259 4.96949L74.5648 12.0732C72.5016 11.3649 70.3817 10.7988 68.2333 10.3819L64.8887 0.265292L63.3088 0.149227C60.5659 -0.0497422 57.7708 -0.0497422 55.0279 0.149227L53.448 0.262923L50.1034 10.3819C47.9574 10.7988 45.8351 11.3649 43.7719 12.0732L35.8061 4.96949L34.3778 5.66351C31.9049 6.86443 29.5007 8.25721 27.2315 9.79922L25.9239 10.6898L28.0889 21.0907C26.4285 22.5356 24.8699 24.0966 23.425 25.7523L13.0265 23.5873L12.1359 24.8972C10.5844 27.1806 9.19397 29.5848 8.00016 32.0482L7.31087 33.4742L14.4098 41.4353C13.7016 43.4984 13.1355 45.6184 12.7186 47.7668L2.60194 51.1113L2.48588 52.6913C2.38639 54.0627 2.32007 55.4366 2.32007 56.8317C2.32007 58.2269 2.38639 59.6007 2.48588 60.9722L2.59957 62.5521L12.7162 65.8966C13.1331 68.0498 13.6992 70.1697 14.4074 72.2281L7.30377 80.194L7.99779 81.6223C9.19871 84.0952 10.5915 86.4994 12.1335 88.7686L13.0241 90.0785L23.425 87.9135C24.8699 89.574 26.4308 91.1325 28.0866 92.5774L25.9239 102.978L27.2338 103.869C29.5172 105.42 31.9214 106.811 34.3849 108.005L35.8108 108.694L43.7743 101.595C45.8374 102.303 47.9574 102.869 50.1058 103.286L53.4504 113.403L55.0303 113.517C56.3994 113.614 57.7732 113.68 59.1684 113.68C60.5635 113.68 61.9373 113.614 63.3088 113.514L64.8887 113.4L68.2333 103.284C70.3864 102.867 72.5064 102.301 74.5648 101.593L82.5306 108.696L83.9589 108.002C86.4318 106.801 88.8361 105.409 91.1052 103.867L92.4151 102.976L90.2502 92.5751C91.9106 91.1302 93.4692 89.5692 94.9141 87.9135L105.315 90.0761L106.206 88.7662C107.757 86.4828 109.147 84.0786 110.341 81.6152L111.031 80.1892L103.927 72.2281C104.635 70.165 105.201 68.0427 105.618 65.8966L115.735 62.5521L115.848 60.9722C115.95 59.6007 116.017 58.2269 116.017 56.8317C116.017 55.4366 115.95 54.0627 115.851 52.6913L115.737 51.1113ZM111.222 59.0535L101.428 62.2915L101.196 63.7103C100.743 66.5125 100.004 69.272 99.0048 71.9131L98.4979 73.2538L105.362 80.9567C104.683 82.2595 103.939 83.5409 103.145 84.7868L93.0855 82.6929L92.1759 83.8062C90.3757 86.0043 88.3457 88.0343 86.1381 89.8416L85.0248 90.7512L87.1211 100.811C85.8776 101.602 84.5985 102.343 83.291 103.03L75.588 96.1612L74.245 96.6729C71.6158 97.6701 68.8562 98.4044 66.0446 98.8615L64.6258 99.0937L61.3878 108.888C59.9169 108.962 58.4127 108.962 56.9418 108.888L53.7038 99.0937L52.285 98.8615C49.4805 98.4091 46.7209 97.6701 44.0846 96.6705L42.7416 96.1612L35.0386 103.028C33.7358 102.348 32.4544 101.604 31.2085 100.811L33.3024 90.7512L32.1891 89.8416C29.991 88.0414 27.961 86.0115 26.1537 83.8038L25.2441 82.6906L15.1844 84.7868C14.3932 83.5433 13.6518 82.2642 12.9649 80.9567L19.8341 73.2538L19.3224 71.9107C18.3252 69.2815 17.5909 66.522 17.1338 63.7103L16.9017 62.2915L7.10717 59.0535C7.07874 58.3192 7.05743 57.5778 7.05743 56.8317C7.05743 56.0856 7.07874 55.3442 7.11427 54.6099L16.9088 51.3719L17.1409 49.9531C17.5933 47.1485 18.3323 44.389 19.3319 41.7527L19.8412 40.4097L12.9744 32.7067C13.6542 31.4039 14.398 30.1225 15.1915 28.8766L25.2512 30.9705L26.1608 29.8572C27.961 27.6591 29.991 25.6291 32.1986 23.8218L33.3119 22.9122L31.2156 12.8525C32.4591 12.0613 33.7382 11.3199 35.0457 10.633L42.7487 17.4998L44.0893 16.9929C46.7304 15.9933 49.4899 15.2567 52.2921 14.8019L53.7109 14.5697L56.9489 4.77526C58.4198 4.70183 59.924 4.70183 61.3949 4.77526L64.6329 14.5697L66.0517 14.8019C68.8562 15.2543 71.6158 15.9933 74.2521 16.9929L75.5951 17.5022L83.2981 10.6354C84.6008 11.3152 85.8823 12.0589 87.1282 12.8525L85.0343 22.9122L86.1476 23.8218C88.3457 25.622 90.3757 27.652 92.183 29.8596L93.0926 30.9728L103.152 28.8766C103.943 30.1201 104.685 31.3992 105.372 32.7067L98.5026 40.4097L99.0143 41.7527C100.011 44.3819 100.746 47.1414 101.203 49.9531L101.435 51.3719L111.23 54.6099C111.258 55.3442 111.279 56.0856 111.279 56.8317C111.279 57.5778 111.258 58.3192 111.222 59.0535Z" fill="#F1F1F1"/>
<path d="M58.479 23.6796C46.188 24.0278 35.8771 34.3103 35.4958 46.6013C35.2684 53.7571 38.2482 60.5529 43.663 65.2405C47.4955 68.5566 49.6936 73.2016 49.6936 78.1498V80.5185V89.9932H56.7997V94.7305H61.537V89.9932H68.643V80.3574V77.9887C68.643 73.2514 70.8862 68.5637 74.7992 65.1315C79.9203 60.6358 82.8551 54.1598 82.8551 47.357C82.8551 40.8999 80.3064 34.8693 75.6757 30.3688C71.0473 25.8707 64.9219 23.5636 58.479 23.6796ZM63.9057 85.2558H54.431V80.5185H63.9057V85.2558ZM71.675 61.569C67.364 65.3542 64.6566 70.3947 64.0407 75.7811H61.537V53.0749L67.949 46.6629L64.5997 43.3136L59.1683 48.745L53.737 43.3136L50.3876 46.6629L56.7997 53.0749V75.7811H54.3125C53.7322 70.4255 51.0532 65.3708 46.7612 61.659C42.4289 57.9071 40.0484 52.4733 40.2284 46.7482C40.5339 36.9182 48.7793 28.6941 58.6117 28.417C63.7944 28.2394 68.6691 30.1651 72.3737 33.7655C76.0783 37.3659 78.1178 42.1909 78.1178 47.357C78.1178 52.7954 75.7704 57.9757 71.675 61.569Z" fill="#F1F1F1"/>
</g>
<defs>
<clipPath id="clip0">
<rect width="116" height="116" fill="white"/>
</clipPath>
</defs>
</svg>
