<svg width="98" height="116" viewBox="0 0 98 116" fill="none" xmlns="http://www.w3.org/2000/svg">
<path d="M97.3646 103.259L81.8206 66.1842C81.4246 65.2399 80.3287 64.7909 79.3727 65.1824C78.4166 65.5738 77.9625 66.6566 78.3587 67.6009L92.4108 101.118L79.5933 97.4484C78.7519 97.2073 77.8533 97.575 77.4309 98.3335L70.9935 109.882L55.9157 73.9184C73.3183 70.6028 86.5043 55.4441 86.5043 37.2975C86.5045 16.7316 69.5696 0 48.7536 0C27.9376 0 11.0024 16.7316 11.0024 37.2975C11.0024 45.6275 13.7813 53.3279 18.4707 59.543L0.142609 103.259C-0.132932 103.917 -0.0027806 104.672 0.477606 105.202C0.957743 105.732 1.70343 105.944 2.39515 105.746L17.517 101.416L25.1112 115.042C25.442 115.635 26.0722 116 26.752 116C26.7865 116 26.8212 115.999 26.8559 115.997C27.5751 115.958 28.2076 115.515 28.4834 114.857L43.0064 80.217C43.4024 79.2724 42.9485 78.1897 41.9925 77.7985C41.0364 77.4073 39.9405 77.8558 39.5446 78.8003L26.5132 109.882L20.0763 98.3335C19.6536 97.575 18.7545 97.2073 17.9137 97.4484L5.09636 101.118L21.1834 62.7466C28.0777 70.0324 37.8858 74.5947 48.7536 74.5947C49.8755 74.5947 50.9851 74.5431 52.0823 74.4481L69.024 114.857C69.2995 115.515 69.9323 115.958 70.6513 115.997C70.6862 115.999 70.7207 116 70.7554 116C71.4352 116 72.0654 115.635 72.396 115.042L79.9905 101.416L95.1123 105.746C95.8045 105.944 96.5494 105.732 97.0298 105.202C97.5102 104.672 97.6401 103.917 97.3646 103.259ZM14.7496 37.2975C14.7496 18.773 30.0038 3.70213 48.7536 3.70213C67.5034 3.70213 82.7574 18.773 82.7574 37.2975C82.7574 55.8219 67.5034 70.8925 48.7536 70.8925C30.0038 70.8925 14.7496 55.8219 14.7496 37.2975Z" fill="#00A8EF"/>
<path d="M70.4018 30.3478C70.1863 29.6918 69.6187 29.2085 68.93 29.0943L56.3228 27.004L50.415 15.8041C50.0923 15.1923 49.452 14.8085 48.7535 14.8085C48.0553 14.8085 47.4148 15.1923 47.092 15.8041L41.184 27.004L28.5771 29.0943C27.8884 29.2083 27.3211 29.6915 27.1052 30.3478C26.8894 31.0041 27.0608 31.7243 27.5501 32.2166L36.5058 41.2289L34.6223 53.7209C34.5193 54.4033 34.8091 55.0855 35.3742 55.4912C35.9388 55.8965 36.6854 55.9579 37.3105 55.6507L48.7535 50.0204L60.1963 55.6507C60.4609 55.7807 60.7467 55.8449 61.0315 55.8449C61.4204 55.8449 61.8069 55.7254 62.1329 55.4915C62.698 55.0857 62.9877 54.4035 62.8848 53.7211L61.0015 41.2291L69.9572 32.2166C70.4463 31.7243 70.6177 31.0041 70.4018 30.3478ZM57.6738 39.2931C57.2621 39.7075 57.071 40.2885 57.1577 40.8626L58.649 50.7532L49.5889 46.2956C49.3256 46.1663 49.0398 46.1014 48.7535 46.1014C48.4675 46.1014 48.1812 46.166 47.9184 46.2956L38.8583 50.7532L40.3497 40.8626C40.4363 40.2885 40.2452 39.7073 39.8336 39.2931L32.7427 32.1574L42.7244 30.5023C43.3039 30.4063 43.8043 30.0472 44.0758 29.5323L48.7535 20.6648L53.4312 29.5326C53.703 30.0474 54.2031 30.4065 54.7827 30.5026L64.7646 32.1577L57.6738 39.2931Z" fill="#00A8EF"/>
<path d="M77.1349 39.1647C76.109 39.0292 75.1672 39.743 75.0315 40.7566C73.2936 53.7158 61.9964 63.4887 48.7534 63.4887C34.136 63.4887 22.2437 51.7396 22.2437 37.2976C22.2437 22.8555 34.136 11.1064 48.7534 11.1064C61.9966 11.1064 73.2936 20.8791 75.0315 33.8385C75.1672 34.8522 76.1107 35.5665 77.1349 35.4305C78.1604 35.2962 78.8821 34.3657 78.746 33.3523C76.7625 18.5596 63.8685 7.4043 48.7534 7.4043C32.0698 7.4043 18.4966 20.8142 18.4966 37.2976C18.4966 53.781 32.0698 67.1906 48.7534 67.1906C63.8685 67.1906 76.7625 56.0353 78.7462 41.2426C78.8821 40.2294 78.1607 39.299 77.1349 39.1647Z" fill="#00A8EF"/>
</svg>
