<svg width="60" height="60" viewBox="0 0 60 60" xmlns="http://www.w3.org/2000/svg">
<path fill-rule="evenodd" clip-rule="evenodd" d="M40 5H20C11.7157 5 5 11.7157 5 20V40C5 48.2843 11.7157 55 20 55H40C48.2843 55 55 48.2843 55 40V20C55 11.7157 48.2843 5 40 5ZM10 20C10 14.4772 14.4772 10 20 10H40C45.5229 10 50 14.4772 50 20V40C50 45.5229 45.5229 50 40 50H20C14.4772 50 10 45.5229 10 40V20ZM30 42.5C23.0964 42.5 17.5 36.9036 17.5 30C17.5 23.0965 23.0964 17.5 30 17.5C36.9036 17.5 42.5 23.0965 42.5 30C42.5 36.9036 36.9036 42.5 30 42.5ZM30 37.5C34.1421 37.5 37.5 34.1421 37.5 30C37.5 25.8579 34.1421 22.5 30 22.5C25.8579 22.5 22.5 25.8579 22.5 30C22.5 34.1421 25.8579 37.5 30 37.5ZM45 17.5C45 18.8807 43.8807 20 42.5 20C41.1193 20 40 18.8807 40 17.5C40 16.1193 41.1193 15 42.5 15C43.8807 15 45 16.1193 45 17.5Z" />
</svg>
