<svg width="60" height="60" viewBox="0 0 60 60" xmlns="http://www.w3.org/2000/svg">
<path fill-rule="evenodd" clip-rule="evenodd" d="M10 5H50C52.7614 5 55 7.23858 55 10V50C55 52.7614 52.7614 55 50 55H10C7.23858 55 5 52.7614 5 50V10C5 7.23858 7.23858 5 10 5ZM10 10V50H50V10H10ZM32.5 22.5C31.2056 22.5 29.8381 22.8956 28.6304 23.6304L27.5 22.5H25V40H30V30C30 28.5606 31.4849 27.5 32.5 27.5H35C36.0151 27.5 37.5 28.5606 37.5 30V40H42.5V30C42.5 25.3679 38.4849 22.5 35 22.5H32.5ZM20 20C21.3807 20 22.5 18.8807 22.5 17.5C22.5 16.1193 21.3807 15 20 15C18.6193 15 17.5 16.1193 17.5 17.5C17.5 18.8807 18.6193 20 20 20ZM17.5 22.5V40H22.5V22.5H17.5Z" />
</svg>
