<svg width="868" height="364" viewBox="0 0 868 364" fill="none" xmlns="http://www.w3.org/2000/svg">
<path d="M27.864 334H18.49C14.7633 334 11.8107 332.911 9.632 330.732C7.51067 328.553 6.45 325.572 6.45 321.788V290.914C6.45 287.13 7.51067 284.149 9.632 281.97C11.8107 279.791 14.7633 278.702 18.49 278.702H27.864C31.5907 278.702 34.5433 279.791 36.722 281.97C38.9007 284.149 39.99 287.13 39.99 290.914V294.784C39.99 295.472 39.6747 295.816 39.044 295.816H36.55C35.9193 295.816 35.604 295.472 35.604 294.784V291.086C35.604 288.334 34.916 286.241 33.54 284.808C32.164 283.317 30.1573 282.572 27.52 282.572H18.834C16.1967 282.572 14.19 283.317 12.814 284.808C11.438 286.299 10.75 288.391 10.75 291.086V321.616C10.75 324.311 11.438 326.403 12.814 327.894C14.19 329.385 16.1967 330.13 18.834 330.13H27.52C30.1573 330.13 32.164 329.413 33.54 327.98C34.916 326.489 35.604 324.368 35.604 321.616V310.264C35.604 309.748 35.346 309.49 34.83 309.49H24.94C24.3093 309.49 23.994 309.175 23.994 308.544V306.566C23.994 305.935 24.3093 305.62 24.94 305.62H38.356C39.4453 305.62 39.99 306.193 39.99 307.34V321.788C39.99 325.572 38.9007 328.553 36.722 330.732C34.5433 332.911 31.5907 334 27.864 334ZM81.8774 334H54.5294C53.956 334 53.6694 333.656 53.6694 332.968V279.734C53.6694 279.046 53.956 278.702 54.5294 278.702H57.0234C57.654 278.702 57.9694 279.046 57.9694 279.734V329.184C57.9694 329.7 58.256 329.958 58.8294 329.958H81.8774C82.5654 329.958 82.9094 330.273 82.9094 330.904V333.054C82.9094 333.685 82.5654 334 81.8774 334ZM103.994 330.13H113.798C116.435 330.13 118.442 329.413 119.818 327.98C121.251 326.489 121.968 324.368 121.968 321.616V291.086C121.968 288.334 121.251 286.241 119.818 284.808C118.442 283.317 116.435 282.572 113.798 282.572H103.994C101.357 282.572 99.3502 283.317 97.9742 284.808C96.5982 286.299 95.9102 288.391 95.9102 291.086V321.616C95.9102 324.311 96.5982 326.403 97.9742 327.894C99.3502 329.385 101.357 330.13 103.994 330.13ZM114.228 334H103.65C99.9235 334 96.9708 332.911 94.7922 330.732C92.6708 328.553 91.6102 325.572 91.6102 321.788V290.914C91.6102 287.13 92.6708 284.149 94.7922 281.97C96.9708 279.791 99.9235 278.702 103.65 278.702H114.228C117.955 278.702 120.879 279.791 123 281.97C125.179 284.149 126.268 287.13 126.268 290.914V321.788C126.268 325.572 125.179 328.553 123 330.732C120.879 332.911 117.955 334 114.228 334ZM145.165 330.216H161.161C166.608 330.216 169.331 327.464 169.331 321.96V316.026C169.331 310.579 166.35 307.856 160.387 307.856H145.165C144.592 307.856 144.305 308.085 144.305 308.544V329.442C144.305 329.958 144.592 330.216 145.165 330.216ZM145.165 304.072H160.301C162.996 304.072 165.06 303.355 166.493 301.922C167.984 300.489 168.729 298.453 168.729 295.816V290.742C168.729 285.238 166.006 282.486 160.559 282.486H145.165C144.592 282.486 144.305 282.744 144.305 283.26V303.298C144.305 303.814 144.592 304.072 145.165 304.072ZM140.005 332.968V279.734C140.005 279.046 140.292 278.702 140.865 278.702H160.903C164.63 278.702 167.583 279.763 169.761 281.884C171.94 284.005 173.029 286.929 173.029 290.656V295.902C173.029 301.119 170.564 304.473 165.633 305.964C167.755 306.079 169.618 307.053 171.223 308.888C172.829 310.723 173.631 313.102 173.631 316.026V322.046C173.631 325.773 172.542 328.697 170.363 330.818C168.185 332.939 165.232 334 161.505 334H140.865C140.292 334 140.005 333.656 140.005 332.968ZM185.491 334H182.825C182.194 334 181.993 333.656 182.223 332.968L199.337 279.734C199.509 279.046 199.91 278.702 200.541 278.702H204.583C205.156 278.702 205.557 279.046 205.787 279.734L222.901 332.968C223.073 333.656 222.872 334 222.299 334H219.547C218.973 334 218.601 333.656 218.429 332.968L213.785 319.208H191.253L186.609 332.968C186.379 333.656 186.007 334 185.491 334ZM202.347 283.432L192.457 315.338H212.667L202.691 283.432H202.347ZM261.016 334H233.668C233.095 334 232.808 333.656 232.808 332.968V279.734C232.808 279.046 233.095 278.702 233.668 278.702H236.162C236.793 278.702 237.108 279.046 237.108 279.734V329.184C237.108 329.7 237.395 329.958 237.968 329.958H261.016C261.704 329.958 262.048 330.273 262.048 330.904V333.054C262.048 333.685 261.704 334 261.016 334ZM322.745 334H295.397C294.823 334 294.537 333.656 294.537 332.968V279.734C294.537 279.046 294.823 278.702 295.397 278.702H297.891C298.521 278.702 298.837 279.046 298.837 279.734V329.184C298.837 329.7 299.123 329.958 299.697 329.958H322.745C323.433 329.958 323.777 330.273 323.777 330.904V333.054C323.777 333.685 323.433 334 322.745 334ZM360.771 334H334.197C333.624 334 333.337 333.656 333.337 332.968V279.734C333.337 279.046 333.624 278.702 334.197 278.702H360.771C361.459 278.702 361.803 279.017 361.803 279.648V281.626C361.803 282.257 361.459 282.572 360.771 282.572H338.497C337.924 282.572 337.637 282.83 337.637 283.346V303.126C337.637 303.642 337.924 303.9 338.497 303.9H358.363C358.994 303.9 359.309 304.215 359.309 304.846V306.824C359.309 307.455 358.994 307.77 358.363 307.77H338.497C337.924 307.77 337.637 308.028 337.637 308.544V329.356C337.637 329.872 337.924 330.13 338.497 330.13H360.771C361.459 330.13 361.803 330.445 361.803 331.076V333.054C361.803 333.685 361.459 334 360.771 334ZM373.28 334H370.614C369.983 334 369.782 333.656 370.012 332.968L387.126 279.734C387.298 279.046 387.699 278.702 388.33 278.702H392.372C392.945 278.702 393.346 279.046 393.576 279.734L410.69 332.968C410.862 333.656 410.661 334 410.088 334H407.336C406.762 334 406.39 333.656 406.218 332.968L401.574 319.208H379.042L374.398 332.968C374.168 333.656 373.796 334 373.28 334ZM390.136 283.432L380.246 315.338H400.456L390.48 283.432H390.136ZM425.757 330.13H442.269C444.906 330.13 446.913 329.413 448.289 327.98C449.722 326.489 450.439 324.368 450.439 321.616V291.086C450.439 288.334 449.722 286.241 448.289 284.808C446.913 283.317 444.906 282.572 442.269 282.572H425.757C425.184 282.572 424.897 282.83 424.897 283.346V329.356C424.897 329.872 425.184 330.13 425.757 330.13ZM420.597 332.968V279.734C420.597 279.046 420.884 278.702 421.457 278.702H442.699C446.426 278.702 449.35 279.791 451.471 281.97C453.65 284.149 454.739 287.13 454.739 290.914V321.788C454.739 325.572 453.65 328.553 451.471 330.732C449.35 332.911 446.426 334 442.699 334H421.457C420.884 334 420.597 333.656 420.597 332.968ZM491.052 321.788V318.692C491.052 318.061 491.367 317.746 491.998 317.746H494.492C495.123 317.746 495.438 318.061 495.438 318.692V321.53C495.438 327.263 498.219 330.13 503.78 330.13H512.724C518.285 330.13 521.066 327.235 521.066 321.444V317.832C521.066 315.309 520.034 313.331 517.97 311.898C515.906 310.465 513.412 309.433 510.488 308.802C507.564 308.171 504.611 307.512 501.63 306.824C498.706 306.136 496.212 304.875 494.148 303.04C492.084 301.205 491.052 298.74 491.052 295.644V290.914C491.052 287.13 492.141 284.149 494.32 281.97C496.499 279.791 499.451 278.702 503.178 278.702H513.154C516.881 278.702 519.833 279.791 522.012 281.97C524.191 284.149 525.28 287.13 525.28 290.914V293.322C525.28 293.953 524.965 294.268 524.334 294.268H521.84C521.209 294.268 520.894 293.953 520.894 293.322V291.172C520.894 285.439 518.113 282.572 512.552 282.572H503.694C498.19 282.572 495.438 285.496 495.438 291.344V295.644C495.438 299.6 498.964 302.266 506.016 303.642C508.94 304.215 511.864 304.875 514.788 305.62C517.769 306.365 520.292 307.713 522.356 309.662C524.42 311.611 525.452 314.249 525.452 317.574V321.788C525.452 325.572 524.363 328.553 522.184 330.732C520.005 332.911 517.053 334 513.326 334H503.178C499.451 334 496.499 332.911 494.32 330.732C492.141 328.553 491.052 325.572 491.052 321.788ZM551.211 330.13H561.015C563.652 330.13 565.659 329.413 567.035 327.98C568.468 326.489 569.185 324.368 569.185 321.616V291.086C569.185 288.334 568.468 286.241 567.035 284.808C565.659 283.317 563.652 282.572 561.015 282.572H551.211C548.574 282.572 546.567 283.317 545.191 284.808C543.815 286.299 543.127 288.391 543.127 291.086V321.616C543.127 324.311 543.815 326.403 545.191 327.894C546.567 329.385 548.574 330.13 551.211 330.13ZM561.445 334H550.867C547.14 334 544.188 332.911 542.009 330.732C539.888 328.553 538.827 325.572 538.827 321.788V290.914C538.827 287.13 539.888 284.149 542.009 281.97C544.188 279.791 547.14 278.702 550.867 278.702H561.445C565.172 278.702 568.096 279.791 570.217 281.97C572.396 284.149 573.485 287.13 573.485 290.914V321.788C573.485 325.572 572.396 328.553 570.217 330.732C568.096 332.911 565.172 334 561.445 334ZM615.43 334H588.082C587.509 334 587.222 333.656 587.222 332.968V279.734C587.222 279.046 587.509 278.702 588.082 278.702H590.576C591.207 278.702 591.522 279.046 591.522 279.734V329.184C591.522 329.7 591.809 329.958 592.382 329.958H615.43C616.118 329.958 616.462 330.273 616.462 330.904V333.054C616.462 333.685 616.118 334 615.43 334ZM655.951 278.702H658.359C658.99 278.702 659.305 279.017 659.305 279.648V321.788C659.305 325.572 658.216 328.553 656.037 330.732C653.916 332.911 650.992 334 647.265 334H637.633C633.906 334 630.954 332.911 628.775 330.732C626.654 328.553 625.593 325.572 625.593 321.788V279.734C625.593 279.046 625.88 278.702 626.453 278.702H628.947C629.578 278.702 629.893 279.046 629.893 279.734V321.616C629.893 324.311 630.581 326.403 631.957 327.894C633.333 329.385 635.34 330.13 637.977 330.13H646.835C649.472 330.13 651.479 329.413 652.855 327.98C654.288 326.489 655.005 324.368 655.005 321.616V279.734C655.005 279.046 655.32 278.702 655.951 278.702ZM685.514 334H683.02C682.389 334 682.074 333.656 682.074 332.968V283.346C682.074 282.83 681.787 282.572 681.214 282.572H668.744C668.056 282.572 667.712 282.257 667.712 281.626V279.648C667.712 279.017 668.056 278.702 668.744 278.702H699.704C700.392 278.702 700.736 279.017 700.736 279.648V281.626C700.736 282.257 700.392 282.572 699.704 282.572H687.234C686.661 282.572 686.374 282.83 686.374 283.346V332.968C686.374 333.656 686.087 334 685.514 334ZM714.317 279.734V332.968C714.317 333.656 714.002 334 713.371 334H710.877C710.304 334 710.017 333.656 710.017 332.968V279.734C710.017 279.046 710.304 278.702 710.877 278.702H713.371C714.002 278.702 714.317 279.046 714.317 279.734ZM740.932 330.13H750.736C753.373 330.13 755.38 329.413 756.756 327.98C758.189 326.489 758.906 324.368 758.906 321.616V291.086C758.906 288.334 758.189 286.241 756.756 284.808C755.38 283.317 753.373 282.572 750.736 282.572H740.932C738.294 282.572 736.288 283.317 734.912 284.808C733.536 286.299 732.848 288.391 732.848 291.086V321.616C732.848 324.311 733.536 326.403 734.912 327.894C736.288 329.385 738.294 330.13 740.932 330.13ZM751.166 334H740.588C736.861 334 733.908 332.911 731.73 330.732C729.608 328.553 728.548 325.572 728.548 321.788V290.914C728.548 287.13 729.608 284.149 731.73 281.97C733.908 279.791 736.861 278.702 740.588 278.702H751.166C754.892 278.702 757.816 279.791 759.938 281.97C762.116 284.149 763.206 287.13 763.206 290.914V321.788C763.206 325.572 762.116 328.553 759.938 330.732C757.816 332.911 754.892 334 751.166 334ZM780.297 334H777.803C777.229 334 776.943 333.656 776.943 332.968V279.734C776.943 279.046 777.229 278.702 777.803 278.702H780.125C780.641 278.702 780.985 278.874 781.157 279.218L807.559 324.626H807.903V279.734C807.903 279.046 808.218 278.702 808.849 278.702H811.257C811.887 278.702 812.203 279.046 812.203 279.734V332.968C812.203 333.656 811.887 334 811.257 334H809.279C808.763 334 808.304 333.685 807.903 333.054L781.587 287.99H781.243V332.968C781.243 333.656 780.927 334 780.297 334ZM826.402 321.788V318.692C826.402 318.061 826.717 317.746 827.348 317.746H829.842C830.472 317.746 830.788 318.061 830.788 318.692V321.53C830.788 327.263 833.568 330.13 839.13 330.13H848.074C853.635 330.13 856.416 327.235 856.416 321.444V317.832C856.416 315.309 855.384 313.331 853.32 311.898C851.256 310.465 848.762 309.433 845.838 308.802C842.914 308.171 839.961 307.512 836.98 306.824C834.056 306.136 831.562 304.875 829.498 303.04C827.434 301.205 826.402 298.74 826.402 295.644V290.914C826.402 287.13 827.491 284.149 829.67 281.97C831.848 279.791 834.801 278.702 838.528 278.702H848.504C852.23 278.702 855.183 279.791 857.362 281.97C859.54 284.149 860.63 287.13 860.63 290.914V293.322C860.63 293.953 860.314 294.268 859.684 294.268H857.19C856.559 294.268 856.244 293.953 856.244 293.322V291.172C856.244 285.439 853.463 282.572 847.902 282.572H839.044C833.54 282.572 830.788 285.496 830.788 291.344V295.644C830.788 299.6 834.314 302.266 841.366 303.642C844.29 304.215 847.214 304.875 850.138 305.62C853.119 306.365 855.642 307.713 857.706 309.662C859.77 311.611 860.802 314.249 860.802 317.574V321.788C860.802 325.572 859.712 328.553 857.534 330.732C855.355 332.911 852.402 334 848.676 334H838.528C834.801 334 831.848 332.911 829.67 330.732C827.491 328.553 826.402 325.572 826.402 321.788Z" fill="url(#paint0_linear)"/>
<rect x="374.082" y="202.367" width="119.203" height="16.6329" fill="#222222"/>
<rect x="223" y="202.367" width="119.203" height="16.6329" fill="#222222"/>
<rect x="223" width="119.203" height="16.6329" fill="#222222"/>
<rect x="374.082" y="213.456" width="213.456" height="16.6329" transform="rotate(-90 374.082 213.456)" fill="#222222"/>
<rect x="241.019" y="141.38" width="101.184" height="16.6329" fill="#222222"/>
<rect x="342.203" y="141.38" width="77.6203" height="16.6329" transform="rotate(90 342.203 141.38)" fill="#222222"/>
<path d="M601.855 12.0533C591.694 4.48165 579.095 0 565.449 0C532.264 0 505.27 26.5045 504.48 59.4994L521.532 51.1909C526.003 31.0559 543.968 16 565.449 16C572.377 16 578.939 17.5659 584.801 20.3631L601.855 12.0533Z" fill="#222222"/>
<path d="M513.723 190.337C524.504 207.552 543.64 219 565.449 219C599.132 219 626.437 191.695 626.437 158.013C626.437 125.994 601.762 99.7379 570.391 97.2226L572.328 113.548C593.909 116.859 610.437 135.506 610.437 158.013C610.437 182.858 590.295 203 565.449 203C552.201 203 540.291 197.274 532.058 188.161L513.723 190.337Z" fill="#222222"/>
<defs>
<linearGradient id="paint0_linear" x1="434" y1="254" x2="434" y2="364" gradientUnits="userSpaceOnUse">
<stop stop-color="#222222"/>
<stop offset="1" stop-color="#444444"/>
</linearGradient>
</defs>
</svg>
