<svg width="60" height="60" viewBox="0 0 60 60" xmlns="http://www.w3.org/2000/svg">
<path fill-rule="evenodd" clip-rule="evenodd" d="M52.7988 11.736L56.3357 12.1491L54.7458 15.3353C53.9705 16.8891 53.1945 18.443 52.4176 19.9968C52.3255 20.3259 52.1636 20.6144 51.9241 20.99C51.8241 21.147 51.4823 21.6462 51.4663 21.6702C51.376 21.8055 51.3093 21.9123 51.2613 21.9978V27.9691C51.2613 43.2491 36.4738 52.9589 22.5089 52.9589C19.6513 52.9589 17.4802 52.822 14.9941 52.2795C10.9029 51.3867 7.85818 49.612 6.46493 46.5103L5.03053 43.317L8.51647 42.9964C11.67 42.7064 14.4042 42.1056 16.504 41.3012C10.7394 40.3741 7.509 37.8423 7.509 33.0875V30.5875H10.009C10.5583 30.5875 11.0536 30.543 11.4964 30.4612C7.17 27.8744 5.00305 23.7248 5.00305 17.9691C5.00258 17.7238 5.00258 17.7238 5.00111 17.4615C4.98485 14.5604 5.14068 13.0102 5.93487 11.0318C6.44386 9.76385 7.17958 8.59004 8.16975 7.5145L10.0563 5.46533L11.8904 7.5615C17.9348 14.4693 23.9099 18.6602 30.0104 19.1671C30.0365 12.7929 34.8538 7.96914 41.2608 7.96914C44.2477 7.96914 46.957 9.10287 49.0862 11.1471C50.2515 11.3866 51.4891 11.5831 52.7988 11.736ZM47.2716 15.8711L46.5052 15.6976L45.9759 15.1168C44.6961 13.7125 43.0898 12.9699 41.2608 12.9699C37.6034 12.9699 35.0103 15.5759 35.0103 19.2199C35.0103 19.8154 34.9949 20.1896 34.9207 20.6815C34.6247 22.644 33.5239 24.2199 31.2602 24.2199C23.7651 24.2199 17.0034 20.2046 10.4097 13.3468C10.0698 14.3801 9.98984 15.4423 10.001 17.4343C10.0025 17.7007 10.0025 17.7007 10.003 17.9699C10.003 23.0899 12.0773 25.8905 16.9886 27.4516L18.7314 28.0055V29.8341C18.7314 32.0516 16.6305 34.139 13.5567 35.0739C14.9658 36.143 17.8475 36.7199 22.5097 36.7199H25.0097V39.2199C25.0097 42.8017 20.894 45.6062 14.6768 47.0707C16.7044 47.6919 19.4041 47.9597 22.5088 47.9597C34.0449 47.9597 46.2612 39.9381 46.2612 27.9699V21.7199C46.2612 20.9854 46.4741 20.3479 46.8278 19.6851C46.9661 19.4259 47.1184 19.1788 47.3063 18.897C47.3417 18.844 47.4729 18.6517 47.5771 18.4981L47.7753 18.1018C48.0963 17.4597 48.4173 16.8176 48.7381 16.1755C48.2395 16.0811 47.7507 15.9796 47.2716 15.8711Z" />
</svg>
