<?xml version="1.0" encoding="utf-8"?><svg viewBox="0 0 868 364" xmlns="http://www.w3.org/2000/svg" xmlns:xlink="http://www.w3.org/1999/xlink"><style>:root>svg{display:none}:root>svg:target{display:block}</style><svg fill="none" viewBox="0 0 868 364" id="logo" xmlns="http://www.w3.org/2000/svg"><path d="M27.864 334H18.49c-3.727 0-6.68-1.089-8.858-3.268-2.121-2.179-3.182-5.16-3.182-8.944v-30.874c0-3.784 1.06-6.765 3.182-8.944 2.179-2.179 5.131-3.268 8.858-3.268h9.374c3.727 0 6.68 1.089 8.858 3.268 2.179 2.179 3.268 5.16 3.268 8.944v3.87c0 .688-.315 1.032-.946 1.032H36.55c-.63 0-.946-.344-.946-1.032v-3.698c0-2.752-.688-4.845-2.064-6.278-1.376-1.491-3.383-2.236-6.02-2.236h-8.686c-2.637 0-4.644.745-6.02 2.236-1.376 1.491-2.064 3.583-2.064 6.278v30.53c0 2.695.688 4.787 2.064 6.278 1.376 1.491 3.383 2.236 6.02 2.236h8.686c2.637 0 4.644-.717 6.02-2.15 1.376-1.491 2.064-3.612 2.064-6.364v-11.352c0-.516-.258-.774-.774-.774h-9.89c-.63 0-.946-.315-.946-.946v-1.978c0-.631.315-.946.946-.946h13.416c1.09 0 1.634.573 1.634 1.72v14.448c0 3.784-1.09 6.765-3.268 8.944-2.179 2.179-5.131 3.268-8.858 3.268zm54.013 0H54.53c-.573 0-.86-.344-.86-1.032v-53.234c0-.688.287-1.032.86-1.032h2.494c.631 0 .946.344.946 1.032v49.45c0 .516.287.774.86.774h23.048c.688 0 1.032.315 1.032.946v2.15c0 .631-.344.946-1.032.946zm22.117-3.87h9.804c2.637 0 4.644-.717 6.02-2.15 1.433-1.491 2.15-3.612 2.15-6.364v-30.53c0-2.752-.717-4.845-2.15-6.278-1.376-1.491-3.383-2.236-6.02-2.236h-9.804c-2.637 0-4.644.745-6.02 2.236-1.376 1.491-2.064 3.583-2.064 6.278v30.53c0 2.695.688 4.787 2.064 6.278 1.376 1.491 3.383 2.236 6.02 2.236zm10.234 3.87H103.65c-3.727 0-6.68-1.089-8.858-3.268-2.121-2.179-3.182-5.16-3.182-8.944v-30.874c0-3.784 1.06-6.765 3.182-8.944 2.179-2.179 5.132-3.268 8.858-3.268h10.578c3.727 0 6.651 1.089 8.772 3.268 2.179 2.179 3.268 5.16 3.268 8.944v30.874c0 3.784-1.089 6.765-3.268 8.944-2.121 2.179-5.045 3.268-8.772 3.268zm30.937-3.784h15.996c5.447 0 8.17-2.752 8.17-8.256v-5.934c0-5.447-2.981-8.17-8.944-8.17h-15.222c-.573 0-.86.229-.86.688v20.898c0 .516.287.774.86.774zm0-26.144h15.136c2.695 0 4.759-.717 6.192-2.15 1.491-1.433 2.236-3.469 2.236-6.106v-5.074c0-5.504-2.723-8.256-8.17-8.256h-15.394c-.573 0-.86.258-.86.774v20.038c0 .516.287.774.86.774zm-5.16 28.896v-53.234c0-.688.287-1.032.86-1.032h20.038c3.727 0 6.68 1.061 8.858 3.182 2.179 2.121 3.268 5.045 3.268 8.772v5.246c0 5.217-2.465 8.571-7.396 10.062 2.122.115 3.985 1.089 5.59 2.924 1.606 1.835 2.408 4.214 2.408 7.138v6.02c0 3.727-1.089 6.651-3.268 8.772-2.178 2.121-5.131 3.182-8.858 3.182h-20.64c-.573 0-.86-.344-.86-1.032zM185.491 334h-2.666c-.631 0-.832-.344-.602-1.032l17.114-53.234c.172-.688.573-1.032 1.204-1.032h4.042c.573 0 .974.344 1.204 1.032l17.114 53.234c.172.688-.029 1.032-.602 1.032h-2.752c-.574 0-.946-.344-1.118-1.032l-4.644-13.76h-22.532l-4.644 13.76c-.23.688-.602 1.032-1.118 1.032zm16.856-50.568l-9.89 31.906h20.21l-9.976-31.906h-.344zM261.016 334h-27.348c-.573 0-.86-.344-.86-1.032v-53.234c0-.688.287-1.032.86-1.032h2.494c.631 0 .946.344.946 1.032v49.45c0 .516.287.774.86.774h23.048c.688 0 1.032.315 1.032.946v2.15c0 .631-.344.946-1.032.946zm61.729 0h-27.348c-.574 0-.86-.344-.86-1.032v-53.234c0-.688.286-1.032.86-1.032h2.494c.63 0 .946.344.946 1.032v49.45c0 .516.286.774.86.774h23.048c.688 0 1.032.315 1.032.946v2.15c0 .631-.344.946-1.032.946zm38.026 0h-26.574c-.573 0-.86-.344-.86-1.032v-53.234c0-.688.287-1.032.86-1.032h26.574c.688 0 1.032.315 1.032.946v1.978c0 .631-.344.946-1.032.946h-22.274c-.573 0-.86.258-.86.774v19.78c0 .516.287.774.86.774h19.866c.631 0 .946.315.946.946v1.978c0 .631-.315.946-.946.946h-19.866c-.573 0-.86.258-.86.774v20.812c0 .516.287.774.86.774h22.274c.688 0 1.032.315 1.032.946v1.978c0 .631-.344.946-1.032.946zm12.509 0h-2.666c-.631 0-.832-.344-.602-1.032l17.114-53.234c.172-.688.573-1.032 1.204-1.032h4.042c.573 0 .974.344 1.204 1.032l17.114 53.234c.172.688-.029 1.032-.602 1.032h-2.752c-.574 0-.946-.344-1.118-1.032l-4.644-13.76h-22.532l-4.644 13.76c-.23.688-.602 1.032-1.118 1.032zm16.856-50.568l-9.89 31.906h20.21l-9.976-31.906h-.344zm35.621 46.698h16.512c2.637 0 4.644-.717 6.02-2.15 1.433-1.491 2.15-3.612 2.15-6.364v-30.53c0-2.752-.717-4.845-2.15-6.278-1.376-1.491-3.383-2.236-6.02-2.236h-16.512c-.573 0-.86.258-.86.774v46.01c0 .516.287.774.86.774zm-5.16 2.838v-53.234c0-.688.287-1.032.86-1.032h21.242c3.727 0 6.651 1.089 8.772 3.268 2.179 2.179 3.268 5.16 3.268 8.944v30.874c0 3.784-1.089 6.765-3.268 8.944-2.121 2.179-5.045 3.268-8.772 3.268h-21.242c-.573 0-.86-.344-.86-1.032zm70.455-11.18v-3.096c0-.631.315-.946.946-.946h2.494c.631 0 .946.315.946.946v2.838c0 5.733 2.781 8.6 8.342 8.6h8.944c5.561 0 8.342-2.895 8.342-8.686v-3.612c0-2.523-1.032-4.501-3.096-5.934-2.064-1.433-4.558-2.465-7.482-3.096a635.497 635.497 0 01-8.858-1.978c-2.924-.688-5.418-1.949-7.482-3.784-2.064-1.835-3.096-4.3-3.096-7.396v-4.73c0-3.784 1.089-6.765 3.268-8.944 2.179-2.179 5.131-3.268 8.858-3.268h9.976c3.727 0 6.679 1.089 8.858 3.268 2.179 2.179 3.268 5.16 3.268 8.944v2.408c0 .631-.315.946-.946.946h-2.494c-.631 0-.946-.315-.946-.946v-2.15c0-5.733-2.781-8.6-8.342-8.6h-8.858c-5.504 0-8.256 2.924-8.256 8.772v4.3c0 3.956 3.526 6.622 10.578 7.998a160.67 160.67 0 018.772 1.978c2.981.745 5.504 2.093 7.568 4.042 2.064 1.949 3.096 4.587 3.096 7.912v4.214c0 3.784-1.089 6.765-3.268 8.944-2.179 2.179-5.131 3.268-8.858 3.268h-10.148c-3.727 0-6.679-1.089-8.858-3.268-2.179-2.179-3.268-5.16-3.268-8.944zm60.159 8.342h9.804c2.637 0 4.644-.717 6.02-2.15 1.433-1.491 2.15-3.612 2.15-6.364v-30.53c0-2.752-.717-4.845-2.15-6.278-1.376-1.491-3.383-2.236-6.02-2.236h-9.804c-2.637 0-4.644.745-6.02 2.236-1.376 1.491-2.064 3.583-2.064 6.278v30.53c0 2.695.688 4.787 2.064 6.278 1.376 1.491 3.383 2.236 6.02 2.236zm10.234 3.87h-10.578c-3.727 0-6.679-1.089-8.858-3.268-2.121-2.179-3.182-5.16-3.182-8.944v-30.874c0-3.784 1.061-6.765 3.182-8.944 2.179-2.179 5.131-3.268 8.858-3.268h10.578c3.727 0 6.651 1.089 8.772 3.268 2.179 2.179 3.268 5.16 3.268 8.944v30.874c0 3.784-1.089 6.765-3.268 8.944-2.121 2.179-5.045 3.268-8.772 3.268zm53.985 0h-27.348c-.573 0-.86-.344-.86-1.032v-53.234c0-.688.287-1.032.86-1.032h2.494c.631 0 .946.344.946 1.032v49.45c0 .516.287.774.86.774h23.048c.688 0 1.032.315 1.032.946v2.15c0 .631-.344.946-1.032.946zm40.521-55.298h2.408c.631 0 .946.315.946.946v42.14c0 3.784-1.089 6.765-3.268 8.944-2.121 2.179-5.045 3.268-8.772 3.268h-9.632c-3.727 0-6.679-1.089-8.858-3.268-2.121-2.179-3.182-5.16-3.182-8.944v-42.054c0-.688.287-1.032.86-1.032h2.494c.631 0 .946.344.946 1.032v41.882c0 2.695.688 4.787 2.064 6.278 1.376 1.491 3.383 2.236 6.02 2.236h8.858c2.637 0 4.644-.717 6.02-2.15 1.433-1.491 2.15-3.612 2.15-6.364v-41.882c0-.688.315-1.032.946-1.032zM685.514 334h-2.494c-.631 0-.946-.344-.946-1.032v-49.622c0-.516-.287-.774-.86-.774h-12.47c-.688 0-1.032-.315-1.032-.946v-1.978c0-.631.344-.946 1.032-.946h30.96c.688 0 1.032.315 1.032.946v1.978c0 .631-.344.946-1.032.946h-12.47c-.573 0-.86.258-.86.774v49.622c0 .688-.287 1.032-.86 1.032zm28.803-54.266v53.234c0 .688-.315 1.032-.946 1.032h-2.494c-.573 0-.86-.344-.86-1.032v-53.234c0-.688.287-1.032.86-1.032h2.494c.631 0 .946.344.946 1.032zm26.615 50.396h9.804c2.637 0 4.644-.717 6.02-2.15 1.433-1.491 2.15-3.612 2.15-6.364v-30.53c0-2.752-.717-4.845-2.15-6.278-1.376-1.491-3.383-2.236-6.02-2.236h-9.804c-2.638 0-4.644.745-6.02 2.236-1.376 1.491-2.064 3.583-2.064 6.278v30.53c0 2.695.688 4.787 2.064 6.278 1.376 1.491 3.382 2.236 6.02 2.236zm10.234 3.87h-10.578c-3.727 0-6.68-1.089-8.858-3.268-2.122-2.179-3.182-5.16-3.182-8.944v-30.874c0-3.784 1.06-6.765 3.182-8.944 2.178-2.179 5.131-3.268 8.858-3.268h10.578c3.726 0 6.65 1.089 8.772 3.268 2.178 2.179 3.268 5.16 3.268 8.944v30.874c0 3.784-1.09 6.765-3.268 8.944-2.122 2.179-5.046 3.268-8.772 3.268zm29.131 0h-2.494c-.574 0-.86-.344-.86-1.032v-53.234c0-.688.286-1.032.86-1.032h2.322c.516 0 .86.172 1.032.516l26.402 45.408h.344v-44.892c0-.688.315-1.032.946-1.032h2.408c.63 0 .946.344.946 1.032v53.234c0 .688-.316 1.032-.946 1.032h-1.978c-.516 0-.975-.315-1.376-.946l-26.316-45.064h-.344v44.978c0 .688-.316 1.032-.946 1.032zm46.105-12.212v-3.096c0-.631.315-.946.946-.946h2.494c.63 0 .946.315.946.946v2.838c0 5.733 2.78 8.6 8.342 8.6h8.944c5.561 0 8.342-2.895 8.342-8.686v-3.612c0-2.523-1.032-4.501-3.096-5.934-2.064-1.433-4.558-2.465-7.482-3.096a635.497 635.497 0 01-8.858-1.978c-2.924-.688-5.418-1.949-7.482-3.784-2.064-1.835-3.096-4.3-3.096-7.396v-4.73c0-3.784 1.089-6.765 3.268-8.944 2.178-2.179 5.131-3.268 8.858-3.268h9.976c3.726 0 6.679 1.089 8.858 3.268 2.178 2.179 3.268 5.16 3.268 8.944v2.408c0 .631-.316.946-.946.946h-2.494c-.631 0-.946-.315-.946-.946v-2.15c0-5.733-2.781-8.6-8.342-8.6h-8.858c-5.504 0-8.256 2.924-8.256 8.772v4.3c0 3.956 3.526 6.622 10.578 7.998a160.67 160.67 0 018.772 1.978c2.981.745 5.504 2.093 7.568 4.042 2.064 1.949 3.096 4.587 3.096 7.912v4.214c0 3.784-1.09 6.765-3.268 8.944-2.179 2.179-5.132 3.268-8.858 3.268h-10.148c-3.727 0-6.68-1.089-8.858-3.268-2.179-2.179-3.268-5.16-3.268-8.944z" fill="url(#apaint0_linear)"/><path fill="#222" d="M374.082 202.367h119.203V219H374.082zM223 202.367h119.203V219H223zM223 0h119.203v16.633H223z"/><path fill="#222" d="M374.082 213.456V0h16.633v213.456zM241.019 141.38h101.184v16.633H241.019z"/><path fill="#222" d="M342.203 141.38V219H325.57v-77.62zM601.855 12.053C591.694 4.482 579.095 0 565.449 0c-33.185 0-60.179 26.505-60.969 59.5l17.052-8.31C526.003 31.057 543.968 16 565.449 16c6.928 0 13.49 1.566 19.352 4.363l17.054-8.31zM513.723 190.337C524.504 207.552 543.64 219 565.449 219c33.683 0 60.988-27.305 60.988-60.987 0-32.019-24.675-58.275-56.046-60.79l1.937 16.325c21.581 3.311 38.109 21.958 38.109 44.465 0 24.845-20.142 44.987-44.988 44.987-13.248 0-25.158-5.726-33.391-14.839l-18.335 2.176z"/><defs><linearGradient id="apaint0_linear" x1="434" y1="254" x2="434" y2="364" gradientUnits="userSpaceOnUse"><stop stop-color="#222"/><stop offset="1" stop-color="#444"/></linearGradient></defs></svg></svg>