<?xml version="1.0" encoding="utf-8"?><svg viewBox="0 0 306 415" xmlns="http://www.w3.org/2000/svg" xmlns:xlink="http://www.w3.org/1999/xlink"><style>:root>svg{display:none}:root>svg:target{display:block}</style><svg viewBox="0 0 60 61" id="facebook" xmlns="http://www.w3.org/2000/svg"><path fill-rule="evenodd" clip-rule="evenodd" d="M10 5.233h40a5 5 0 015 5v40a5 5 0 01-5 5H10a5 5 0 01-5-5v-40a5 5 0 015-5zm0 5v40h40v-40H10zm17.833 20.01H32.5v14.99h5v-14.99h4.956v-5H37.5v-2.51a2.5 2.5 0 012.5-2.5h2.5v-5H40a7.5 7.5 0 00-7.5 7.5v2.51h-4.667v5z"/></svg><svg fill="none" viewBox="0 0 116 116" id="icon-card1" xmlns="http://www.w3.org/2000/svg"><g clip-path="url(#bclip0)" fill="#F1F1F1"><path d="M53.165 111.091C23.852 111.091 0 87.24 0 57.927 0 28.612 23.852 4.76 53.165 4.76a52.99 52.99 0 0128.68 8.405 3.627 3.627 0 11-3.92 6.105 45.714 45.714 0 00-24.76-7.26C27.85 12.011 7.25 32.61 7.25 57.926s20.599 45.915 45.915 45.915S99.08 83.242 99.08 57.927c0-1.514-.073-3.012-.212-4.486a3.624 3.624 0 013.257-3.958 3.629 3.629 0 013.959 3.258c.163 1.706.246 3.436.246 5.185 0 29.314-23.851 53.165-53.165 53.165z"/><path d="M59.206 70.01a3.599 3.599 0 01-2.561-1.064l-21.75-21.75a3.627 3.627 0 015.128-5.127l19.188 19.188 50.598-50.6a3.627 3.627 0 015.129 5.128L61.773 68.951a3.632 3.632 0 01-2.567 1.058z"/></g><defs><clipPath id="bclip0"><path fill="#fff" d="M0 0h116v116H0z"/></clipPath></defs></svg><svg fill="none" viewBox="0 0 98 116" id="icon-card2" xmlns="http://www.w3.org/2000/svg"><path d="M97.365 103.259L81.82 66.184a1.882 1.882 0 00-2.448-1.002 1.843 1.843 0 00-1.014 2.419l14.052 33.517-12.818-3.67a1.882 1.882 0 00-2.162.886l-6.438 11.548-15.077-35.964c17.402-3.315 30.588-18.474 30.588-36.62C86.504 16.732 69.57 0 48.754 0S11.002 16.732 11.002 37.297c0 8.33 2.78 16.03 7.469 22.246L.143 103.259a1.834 1.834 0 00.335 1.943c.48.53 1.225.742 1.917.544l15.122-4.33 7.594 13.626a1.878 1.878 0 001.745.955 1.871 1.871 0 001.627-1.14l14.523-34.64a1.843 1.843 0 00-1.014-2.418 1.882 1.882 0 00-2.447 1.001l-13.032 31.082-6.437-11.549a1.883 1.883 0 00-2.162-.885l-12.818 3.67 16.087-38.371a37.864 37.864 0 0027.57 11.848c1.123 0 2.232-.052 3.33-.147l16.941 40.409A1.87 1.87 0 0070.755 116c.68 0 1.31-.365 1.641-.958l7.594-13.626 15.122 4.33a1.889 1.889 0 001.918-.544c.48-.53.61-1.285.335-1.943zM14.75 37.297c0-18.524 15.254-33.595 34.004-33.595s34.003 15.071 34.003 33.596c0 18.524-15.254 33.594-34.003 33.594-18.75 0-34.004-15.07-34.004-33.594z" fill="#00A8EF"/><path d="M70.402 30.348a1.867 1.867 0 00-1.472-1.254l-12.607-2.09-5.908-11.2a1.876 1.876 0 00-1.661-.995c-.699 0-1.34.383-1.662.995l-5.908 11.2-12.607 2.09a1.867 1.867 0 00-1.472 1.254 1.835 1.835 0 00.445 1.869l8.956 9.012-1.884 12.492a1.84 1.84 0 00.752 1.77 1.894 1.894 0 001.936.16l11.444-5.63 11.442 5.63a1.893 1.893 0 001.937-.16 1.841 1.841 0 00.752-1.77L61.002 41.23l8.955-9.012c.49-.493.66-1.213.445-1.87zm-12.728 8.945a1.837 1.837 0 00-.516 1.57l1.491 9.89-9.06-4.457a1.894 1.894 0 00-1.67 0l-9.06 4.457 1.49-9.89a1.837 1.837 0 00-.515-1.57l-7.091-7.136 9.981-1.655a1.872 1.872 0 001.352-.97l4.678-8.867 4.677 8.868c.272.514.772.873 1.352.97l9.982 1.655-7.091 7.135z" fill="#00A8EF"/><path d="M77.135 39.165a1.868 1.868 0 00-2.104 1.592c-1.737 12.959-13.035 22.732-26.278 22.732-14.617 0-26.51-11.75-26.51-26.191 0-14.443 11.893-26.192 26.51-26.192 13.244 0 24.54 9.773 26.278 22.733a1.869 1.869 0 002.104 1.592 1.855 1.855 0 001.611-2.079C76.763 18.56 63.869 7.404 48.753 7.404c-16.683 0-30.256 13.41-30.256 29.894 0 16.483 13.573 29.893 30.256 29.893 15.115 0 28.01-11.156 29.993-25.948a1.855 1.855 0 00-1.611-2.078z" fill="#00A8EF"/></svg><svg fill="none" viewBox="0 0 116 116" id="icon-card3" xmlns="http://www.w3.org/2000/svg"><g clip-path="url(#dclip0)" fill="#F1F1F1"><path d="M115.737 51.111l-10.117-3.344a46.753 46.753 0 00-1.691-6.332l7.104-7.966-.694-1.428a57.293 57.293 0 00-4.136-7.146l-.89-1.31-10.401 2.165a48.139 48.139 0 00-4.662-4.664l2.163-10.4-1.31-.892a56.974 56.974 0 00-7.151-4.135l-1.426-.69-7.961 7.104a47.224 47.224 0 00-6.332-1.691L64.89.265 63.309.15a57.515 57.515 0 00-8.281 0l-1.58.114-3.345 10.119a47.32 47.32 0 00-6.331 1.691L35.806 4.97l-1.428.695a57.28 57.28 0 00-7.146 4.135l-1.308.89 2.165 10.402a48.14 48.14 0 00-4.664 4.661l-10.399-2.165-.89 1.31A56.978 56.978 0 008 32.048l-.69 1.426 7.1 7.961a47.235 47.235 0 00-1.691 6.332L2.602 51.11l-.116 1.58a57.048 57.048 0 00-.166 4.14c0 1.396.066 2.77.166 4.141l.114 1.58 10.116 3.345a46.857 46.857 0 001.691 6.331l-7.103 7.966.694 1.428a57.28 57.28 0 004.135 7.147l.891 1.31 10.401-2.165a48.117 48.117 0 004.662 4.663l-2.163 10.401 1.31.891a57.059 57.059 0 007.15 4.136l1.427.689 7.963-7.099a47.28 47.28 0 006.332 1.691l3.344 10.117 1.58.114a58.38 58.38 0 004.138.163c1.395 0 2.77-.066 4.14-.166l1.58-.114 3.345-10.116a46.905 46.905 0 006.332-1.691l7.966 7.103 1.428-.694a57.279 57.279 0 007.146-4.135l1.31-.891-2.165-10.4a48.14 48.14 0 004.664-4.662l10.401 2.162.891-1.31a57.057 57.057 0 004.135-7.15l.69-1.427-7.104-7.96a47.372 47.372 0 001.691-6.332l10.117-3.345.113-1.58c.102-1.371.169-2.745.169-4.14 0-1.395-.067-2.77-.166-4.14l-.114-1.58zm-4.515 7.943l-9.794 3.237-.232 1.42a42.317 42.317 0 01-2.191 8.202l-.507 1.34 6.864 7.704a51.012 51.012 0 01-2.217 3.83l-10.06-2.094-.91 1.113a43.148 43.148 0 01-6.037 6.036l-1.113.91 2.096 10.059a53.526 53.526 0 01-3.83 2.219l-7.703-6.869-1.343.512a42.317 42.317 0 01-8.2 2.189l-1.42.232-3.237 9.794c-1.471.074-2.975.074-4.446 0l-3.238-9.794-1.419-.232a42.087 42.087 0 01-8.2-2.191l-1.343-.51-7.703 6.867a51.71 51.71 0 01-3.83-2.217l2.093-10.06-1.113-.91a43.143 43.143 0 01-6.035-6.037l-.91-1.113-10.06 2.096a53.418 53.418 0 01-2.22-3.83l6.87-7.703-.512-1.343a42.315 42.315 0 01-2.188-8.2l-.232-1.42-9.795-3.237a45.973 45.973 0 01.007-4.444l9.795-3.238.232-1.419a42.085 42.085 0 012.19-8.2l.51-1.343-6.867-7.703a51.466 51.466 0 012.217-3.83l10.06 2.094.91-1.114a43.148 43.148 0 016.038-6.035l1.113-.91-2.096-10.06a53.418 53.418 0 013.83-2.219l7.703 6.867 1.34-.507c2.641-1 5.4-1.736 8.203-2.191l1.419-.232 3.238-9.795a44.893 44.893 0 014.446 0l3.238 9.795 1.419.232a42.087 42.087 0 018.2 2.19l1.343.51 7.703-6.867a51.45 51.45 0 013.83 2.217l-2.094 10.06 1.114.91a43.148 43.148 0 016.035 6.038l.91 1.113 10.059-2.096a53.538 53.538 0 012.22 3.83l-6.87 7.703.512 1.343a42.344 42.344 0 012.189 8.2l.232 1.419 9.795 3.238c.028.734.049 1.476.049 2.222s-.021 1.487-.057 2.221z"/><path d="M58.479 23.68c-12.291.348-22.602 10.63-22.983 22.921a23.57 23.57 0 008.167 18.64c3.833 3.316 6.03 7.96 6.03 12.909v11.843H56.8v4.738h4.737v-4.738h7.106V77.99c0-4.738 2.243-9.425 6.156-12.858a23.654 23.654 0 008.056-17.774c0-6.457-2.549-12.488-7.18-16.988-4.628-4.498-10.753-6.805-17.196-6.69zm5.427 61.576H54.43v-4.737h9.475v4.737zm7.769-23.687c-4.311 3.785-7.018 8.826-7.634 14.212h-2.504V53.075l6.412-6.412-3.35-3.35-5.43 5.432-5.432-5.431-3.35 3.349 6.413 6.412V75.78h-2.487c-.58-5.356-3.26-10.41-7.552-14.122a18.86 18.86 0 01-6.533-14.91c.306-9.83 8.551-18.055 18.384-18.332 5.182-.178 10.057 1.748 13.762 5.349 3.704 3.6 5.744 8.425 5.744 13.591a18.911 18.911 0 01-6.443 14.212z"/></g><defs><clipPath id="dclip0"><path fill="#fff" d="M0 0h116v116H0z"/></clipPath></defs></svg><svg viewBox="0 0 60 60" id="instagram" xmlns="http://www.w3.org/2000/svg"><path fill-rule="evenodd" clip-rule="evenodd" d="M40 5H20C11.716 5 5 11.716 5 20v20c0 8.284 6.716 15 15 15h20c8.284 0 15-6.716 15-15V20c0-8.284-6.716-15-15-15zM10 20c0-5.523 4.477-10 10-10h20c5.523 0 10 4.477 10 10v20c0 5.523-4.477 10-10 10H20c-5.523 0-10-4.477-10-10V20zm20 22.5c-6.904 0-12.5-5.596-12.5-12.5S23.096 17.5 30 17.5 42.5 23.096 42.5 30 36.904 42.5 30 42.5zm0-5a7.5 7.5 0 100-15 7.5 7.5 0 000 15zm15-20a2.5 2.5 0 11-5 0 2.5 2.5 0 015 0z"/></svg><svg viewBox="0 0 60 60" id="linkedin" xmlns="http://www.w3.org/2000/svg"><path fill-rule="evenodd" clip-rule="evenodd" d="M10 5h40a5 5 0 015 5v40a5 5 0 01-5 5H10a5 5 0 01-5-5V10a5 5 0 015-5zm0 5v40h40V10H10zm22.5 12.5c-1.294 0-2.662.396-3.87 1.13L27.5 22.5H25V40h5V30c0-1.44 1.485-2.5 2.5-2.5H35c1.015 0 2.5 1.06 2.5 2.5v10h5V30c0-4.632-4.015-7.5-7.5-7.5h-2.5zM20 20a2.5 2.5 0 100-5 2.5 2.5 0 000 5zm-2.5 2.5V40h5V22.5h-5z"/></svg><svg fill="none" viewBox="0 0 306 415" id="meta-icon" xmlns="http://www.w3.org/2000/svg"><g filter="url(#gfilter0_d)"><path d="M141.289 237.138H40.463c-.425.085-.85.085-1.275.17-7.22 1.103-7.305 3.477-7.305 3.477l.17 13.316c-1.444 7.464 8.75 6.616 8.75 6.616H163.288c-4.247-7.209-11.297-15.012-22-23.579z" fill="url(#gpaint0_linear)"/><path d="M266.07 241.888a65830.78 65830.78 0 00-5.861 15.437s-.765 3.901-11.128 3.392h-2.973c-2.463-7.464-6.371-15.267-12.147-23.494h19.877c0-.084 14.1-.254 12.232 4.665z" fill="url(#gpaint1_linear)"/><path d="M252.479 271.489c-.764 2.205-2.038 5.682-3.143 8.735 0-4.071-.424-8.396-1.444-12.807 2.973.594 5.352 1.782 4.587 4.072z" fill="url(#gpaint2_linear)"/><path fill-rule="evenodd" clip-rule="evenodd" d="M136.928 290.275h27.946c3.822-6.615 5.011-14.418 1.529-23.578H40.348c-8.24.932-8.41 3.647-8.41 3.647l.17 13.316c-1.359 7.463 8.24 6.615 8.24 6.615H58.36l.29.56h78.741l-.509-.56h.045z" fill="url(#gpaint3_linear)"/><path d="M120.308 266.738a172.625 172.625 0 01-2.038-3.986 35.186 35.186 0 002.038 3.986z" fill="#39B54A"/><path fill-rule="evenodd" clip-rule="evenodd" d="M234.641 321.191c7.815-10.347 14.78-24.257 14.78-40.966-.084-4.071-.509-8.396-1.444-12.637-.509-2.205-1.104-4.495-1.868-6.785-2.379-7.464-6.371-15.267-12.147-23.494-11.128-15.691-29.22-32.654-56.912-50.465-37.884-24.427-53.854-43.934-56.996-59.455a104.945 104.945 0 00-5.097 9.245s-14.865 30.448-11.552 71.414c.255 1.611.509 3.138.764 4.665 2.209 1.526 4.672 3.053 7.305 4.58 12.147 7.039 22.001 13.74 29.815 20.016 10.703 8.566 17.668 16.369 21.915 23.494 1.19 2.12 2.209 4.156 2.973 6.106 3.568 9.076 2.379 16.879-1.528 23.494-2.973 5.174-7.645 9.584-12.912 13.401-2.633 1.866-5.521 3.647-8.409 5.258-.667.278-1.334.592-1.977.894-.34.16-.673.317-.996.464 0 0-2.379 1.526-7.135 3.477-9.146 3.854-26.996 9.446-52.403 9.255l-.002-.004a.452.452 0 00-.07-.092c-6.2-.085-12.826-.509-19.876-1.357-7.05-.849-14.44-2.206-22.17-4.072 0 0-3.822-1.781-7.56-.763-2.463.679-4.842 2.46-6.2 6.701-2.763 8.886-7.257 29.328-8.727 36.014-.158.716-.28 1.274-.363 1.643v.594c-.085.255-.085.339-.085.339s-.68 1.781-.764 3.987v.169c0 3.138 1.104 7.04 6.625 8.482.558.142 1.23.32 2.013.527 9.949 2.636 37.598 9.962 70.359 7.445 13.166-.339 27.266-1.865 41.537-5.343 0 0 5.181-1.103 13.42-3.647.818-.204 1.635-.469 2.471-.741.554-.18 1.116-.362 1.692-.531l-.485-.182c16.227-5.384 40.537-15.177 61.029-30.774l.084-.085c3.653-2.714 7.136-5.768 10.448-8.906.699-.697 1.416-1.404 2.143-2.121 1.481-1.46 3.001-2.958 4.483-4.494 1.019-1.188 2.039-2.375 2.973-3.647l.085-.085.764-1.018z" fill="url(#gpaint4_linear)"/><path fill-rule="evenodd" clip-rule="evenodd" d="M271.506 28.833l-11.297 44.019s-3.313 9.075-12.741 3.647c0 0-53.854-9.415-73.561 3.986 0 0-30.069 6.616-53.853 46.733-1.575 2.545-3.017 5.289-4.502 8.114l-.369.702-.226.429s-14.865 30.449-11.552 71.414c.255 1.612.509 3.138.764 4.665 1.784 10.517 3.483 18.49 4.927 24.596H40.462c-2.293-14.673-2.718-28.837-2.718-28.837-.68-21.034 1.444-44.867 7.39-71.838 0 0 13.081-61.83 77.893-98.894 0 0 61.158-42.154 144.912-16.03-.008 0 .02.017.077.053.577.367 4.109 2.61 3.49 7.24zM143.413 308.976c2.888-1.612 5.691-3.308 8.409-5.259-2.194-1.541-4.233-3.238-6.19-4.868l-.265-.221c-2.973-2.629-5.777-5.343-8.495-8.311H58.13a178.754 178.754 0 0014.61 23.493h-.084c2.378 3.223 4.756 6.362 7.22 9.245h.085c25.822.34 44-5.343 53.344-9.245 4.672-1.95 7.135-3.477 7.135-3.477.666-.277 1.332-.591 1.975-.893h.001v-.001l.003-.001c.339-.159.672-.316.994-.462zm133.53 58.355v-.933c-.17-2.29-.849-4.071-.849-4.071s-5.182-27.48-8.24-38.252c-3.058-10.771-12.402-6.021-12.402-6.021a150.417 150.417 0 01-21.66 4.325c-.461.575-.922 1.133-1.374 1.681-.549.665-1.087 1.315-1.599 1.966a244.375 244.375 0 01-6.626 6.616 128.62 128.62 0 01-10.448 8.905l-.085.085c-20.726 15.776-45.359 25.614-61.583 30.958 10.108 3.816 16.903 5.428 16.903 5.428 18.348 4.919 36.271 5.937 51.901 5.173.339 0 .7-.021 1.061-.042s.722-.042 1.062-.042c.382-.043.765-.064 1.147-.085.382-.021.764-.043 1.147-.085 1.444-.085 2.888-.17 4.247-.339.764 0 1.443-.085 2.123-.17.255-.042.51-.064.765-.085.255-.021.509-.042.764-.085.17-.084.34-.084.51-.084l2.039-.255c.339-.042.657-.085.975-.127.319-.042.638-.085.978-.127a113.214 113.214 0 001.394-.183l.56-.072c1.115-.223 2.231-.38 3.289-.53l.042-.006.406-.057c.595-.17 1.19-.255 1.784-.34.34-.042.68-.106 1.019-.169.34-.064.68-.128 1.02-.17.34-.042.679-.106 1.019-.17.34-.063.68-.127 1.019-.169.34 0 .68-.085 1.02-.17h.085a115.9 115.9 0 002.463-.509h.17c.51-.169.934-.254 1.444-.339.17-.042.361-.085.552-.127l.133-.03c.146-.032.289-.065.419-.097.68-.085 1.359-.255 2.038-.424l.001-.001c.31-.077.62-.137.922-.195.36-.069.708-.136 1.032-.229l2.038-.509c.294-.048.587-.125.864-.198.204-.053.4-.105.58-.141a22.44 22.44 0 001.105-.254c.084-.043.191-.064.297-.085.106-.021.212-.042.297-.085.128-.042.234-.063.34-.085.106-.021.212-.042.34-.084a6.93 6.93 0 01.984-.29l.047-.011.087-.021.071-.018c.708-.186 1.366-.355 1.962-.509.762-.196 1.421-.366 1.945-.508 5.012-1.273 6.371-4.665 6.456-7.549zM48.023 266.738h72.285a35.186 35.186 0 01-2.038-3.986l-.255-.509c-.255-.509-.51-1.018-.764-1.612H46.069c.594 2.121 1.274 4.156 1.953 6.107z" fill="url(#gpaint5_linear)"/></g><defs><linearGradient id="gpaint0_linear" x1="97.586" y1="237.138" x2="97.586" y2="260.746" gradientUnits="userSpaceOnUse"><stop stop-color="#222"/><stop offset="1" stop-color="#444"/></linearGradient><linearGradient id="gpaint1_linear" x1="250.101" y1="237.197" x2="250.101" y2="260.763" gradientUnits="userSpaceOnUse"><stop stop-color="#222"/><stop offset="1" stop-color="#444"/></linearGradient><linearGradient id="gpaint2_linear" x1="250.258" y1="267.417" x2="250.258" y2="280.224" gradientUnits="userSpaceOnUse"><stop stop-color="#222"/><stop offset="1" stop-color="#444"/></linearGradient><linearGradient id="gpaint3_linear" x1="100.205" y1="266.697" x2="100.205" y2="290.835" gradientUnits="userSpaceOnUse"><stop stop-color="#222"/><stop offset="1" stop-color="#444"/></linearGradient><linearGradient id="gpaint4_linear" x1="65.513" y1="155.554" x2="64.609" y2="403.813" gradientUnits="userSpaceOnUse"><stop stop-color="#00FBFE"/><stop offset="1" stop-color="#325CFA"/></linearGradient><linearGradient id="gpaint5_linear" x1="218.263" y1="4.543" x2="119.03" y2="407.508" gradientUnits="userSpaceOnUse"><stop offset=".015" stop-color="#325CFA"/><stop offset="1" stop-color="#00EFFF"/></linearGradient><filter id="gfilter0_d" x="0" y="0" width="305.943" height="414.419" filterUnits="userSpaceOnUse" color-interpolation-filters="sRGB"><feFlood flood-opacity="0" result="BackgroundImageFix"/><feColorMatrix in="SourceAlpha" values="0 0 0 0 0 0 0 0 0 0 0 0 0 0 0 0 0 0 127 0"/><feOffset dx="7" dy="9"/><feGaussianBlur stdDeviation="11"/><feColorMatrix values="0 0 0 0 0 0 0 0 0 0 0 0 0 0 0 0 0 0 0.25 0"/><feBlend in2="BackgroundImageFix" result="effect1_dropShadow"/><feBlend in="SourceGraphic" in2="effect1_dropShadow" result="shape"/></filter></defs></svg><svg viewBox="0 0 60 60" id="twitter" xmlns="http://www.w3.org/2000/svg"><path fill-rule="evenodd" clip-rule="evenodd" d="M52.799 11.736l3.537.413-1.59 3.186a6322.52 6322.52 0 01-2.328 4.662c-.093.329-.254.617-.494.993-.1.157-.442.656-.458.68-.09.135-.157.242-.205.328v5.971c0 15.28-14.787 24.99-28.752 24.99-2.858 0-5.029-.137-7.515-.68-4.091-.892-7.136-2.667-8.53-5.769l-1.433-3.193 3.485-.32c3.154-.29 5.888-.891 7.988-1.696-5.765-.927-8.995-3.459-8.995-8.214v-2.5h2.5c.55 0 1.045-.044 1.487-.126-4.326-2.587-6.493-6.736-6.493-12.492l-.002-.508c-.016-2.9.14-4.45.934-6.43A11.458 11.458 0 018.17 7.515l1.886-2.049 1.834 2.096c6.045 6.908 12.02 11.1 18.12 11.606.026-6.374 4.844-11.198 11.25-11.198 2.988 0 5.697 1.134 7.826 3.178 1.166.24 2.403.436 3.713.589zm-5.527 4.135l-.767-.173-.53-.581c-1.279-1.405-2.885-2.147-4.714-2.147-3.658 0-6.25 2.606-6.25 6.25 0 .595-.016.97-.09 1.462-.296 1.962-1.397 3.538-3.66 3.538-7.496 0-14.258-4.015-20.851-10.873-.34 1.033-.42 2.095-.409 4.087.002.267.002.267.002.536 0 5.12 2.074 7.92 6.986 9.482l1.742.553v1.83c0 2.217-2.1 4.304-5.174 5.239 1.409 1.069 4.29 1.646 8.953 1.646h2.5v2.5c0 3.582-4.116 6.386-10.333 7.85 2.027.622 4.727.89 7.832.89 11.536 0 23.752-8.022 23.752-19.99v-6.25c0-.735.213-1.372.567-2.035.138-.26.29-.506.478-.788l.271-.399.198-.396.963-1.927a42.083 42.083 0 01-1.466-.304z"/></svg></svg>