<?xml version="1.0" encoding="utf-8"?><svg viewBox="0 0 202 117" xmlns="http://www.w3.org/2000/svg" xmlns:xlink="http://www.w3.org/1999/xlink"><style>:root>svg{display:none}:root>svg:target{display:block}</style><svg viewBox="0 0 60 61" id="facebook" xmlns="http://www.w3.org/2000/svg"><path fill-rule="evenodd" clip-rule="evenodd" d="M10 5.233h40a5 5 0 015 5v40a5 5 0 01-5 5H10a5 5 0 01-5-5v-40a5 5 0 015-5zm0 5v40h40v-40H10zm17.833 20.01H32.5v14.99h5v-14.99h4.956v-5H37.5v-2.51a2.5 2.5 0 012.5-2.5h2.5v-5H40a7.5 7.5 0 00-7.5 7.5v2.51h-4.667v5z"/></svg><svg fill="none" viewBox="0 0 116 116" id="icon-card1" xmlns="http://www.w3.org/2000/svg"><g clip-path="url(#bclip0)" fill="#F1F1F1"><path d="M53.165 111.091C23.852 111.091 0 87.24 0 57.927 0 28.612 23.852 4.76 53.165 4.76a52.99 52.99 0 0128.68 8.405 3.627 3.627 0 11-3.92 6.105 45.714 45.714 0 00-24.76-7.26C27.85 12.011 7.25 32.61 7.25 57.926s20.599 45.915 45.915 45.915S99.08 83.242 99.08 57.927c0-1.514-.073-3.012-.212-4.486a3.624 3.624 0 013.257-3.958 3.629 3.629 0 013.959 3.258c.163 1.706.246 3.436.246 5.185 0 29.314-23.851 53.165-53.165 53.165z"/><path d="M59.206 70.01a3.599 3.599 0 01-2.561-1.064l-21.75-21.75a3.627 3.627 0 015.128-5.127l19.188 19.188 50.598-50.6a3.627 3.627 0 015.129 5.128L61.773 68.951a3.632 3.632 0 01-2.567 1.058z"/></g><defs><clipPath id="bclip0"><path fill="#fff" d="M0 0h116v116H0z"/></clipPath></defs></svg><svg fill="none" viewBox="0 0 98 116" id="icon-card2" xmlns="http://www.w3.org/2000/svg"><path d="M97.365 103.259L81.82 66.184a1.882 1.882 0 00-2.448-1.002 1.843 1.843 0 00-1.014 2.419l14.052 33.517-12.818-3.67a1.882 1.882 0 00-2.162.886l-6.438 11.548-15.077-35.964c17.402-3.315 30.588-18.474 30.588-36.62C86.504 16.732 69.57 0 48.754 0S11.002 16.732 11.002 37.297c0 8.33 2.78 16.03 7.469 22.246L.143 103.259a1.834 1.834 0 00.335 1.943c.48.53 1.225.742 1.917.544l15.122-4.33 7.594 13.626a1.878 1.878 0 001.745.955 1.871 1.871 0 001.627-1.14l14.523-34.64a1.843 1.843 0 00-1.014-2.418 1.882 1.882 0 00-2.447 1.001l-13.032 31.082-6.437-11.549a1.883 1.883 0 00-2.162-.885l-12.818 3.67 16.087-38.371a37.864 37.864 0 0027.57 11.848c1.123 0 2.232-.052 3.33-.147l16.941 40.409A1.87 1.87 0 0070.755 116c.68 0 1.31-.365 1.641-.958l7.594-13.626 15.122 4.33a1.889 1.889 0 001.918-.544c.48-.53.61-1.285.335-1.943zM14.75 37.297c0-18.524 15.254-33.595 34.004-33.595s34.003 15.071 34.003 33.596c0 18.524-15.254 33.594-34.003 33.594-18.75 0-34.004-15.07-34.004-33.594z" fill="#00A8EF"/><path d="M70.402 30.348a1.867 1.867 0 00-1.472-1.254l-12.607-2.09-5.908-11.2a1.876 1.876 0 00-1.661-.995c-.699 0-1.34.383-1.662.995l-5.908 11.2-12.607 2.09a1.867 1.867 0 00-1.472 1.254 1.835 1.835 0 00.445 1.869l8.956 9.012-1.884 12.492a1.84 1.84 0 00.752 1.77 1.894 1.894 0 001.936.16l11.444-5.63 11.442 5.63a1.893 1.893 0 001.937-.16 1.841 1.841 0 00.752-1.77L61.002 41.23l8.955-9.012c.49-.493.66-1.213.445-1.87zm-12.728 8.945a1.837 1.837 0 00-.516 1.57l1.491 9.89-9.06-4.457a1.894 1.894 0 00-1.67 0l-9.06 4.457 1.49-9.89a1.837 1.837 0 00-.515-1.57l-7.091-7.136 9.981-1.655a1.872 1.872 0 001.352-.97l4.678-8.867 4.677 8.868c.272.514.772.873 1.352.97l9.982 1.655-7.091 7.135z" fill="#00A8EF"/><path d="M77.135 39.165a1.868 1.868 0 00-2.104 1.592c-1.737 12.959-13.035 22.732-26.278 22.732-14.617 0-26.51-11.75-26.51-26.191 0-14.443 11.893-26.192 26.51-26.192 13.244 0 24.54 9.773 26.278 22.733a1.869 1.869 0 002.104 1.592 1.855 1.855 0 001.611-2.079C76.763 18.56 63.869 7.404 48.753 7.404c-16.683 0-30.256 13.41-30.256 29.894 0 16.483 13.573 29.893 30.256 29.893 15.115 0 28.01-11.156 29.993-25.948a1.855 1.855 0 00-1.611-2.078z" fill="#00A8EF"/></svg><svg fill="none" viewBox="0 0 116 116" id="icon-card3" xmlns="http://www.w3.org/2000/svg"><g clip-path="url(#dclip0)" fill="#F1F1F1"><path d="M115.737 51.111l-10.117-3.344a46.753 46.753 0 00-1.691-6.332l7.104-7.966-.694-1.428a57.293 57.293 0 00-4.136-7.146l-.89-1.31-10.401 2.165a48.139 48.139 0 00-4.662-4.664l2.163-10.4-1.31-.892a56.974 56.974 0 00-7.151-4.135l-1.426-.69-7.961 7.104a47.224 47.224 0 00-6.332-1.691L64.89.265 63.309.15a57.515 57.515 0 00-8.281 0l-1.58.114-3.345 10.119a47.32 47.32 0 00-6.331 1.691L35.806 4.97l-1.428.695a57.28 57.28 0 00-7.146 4.135l-1.308.89 2.165 10.402a48.14 48.14 0 00-4.664 4.661l-10.399-2.165-.89 1.31A56.978 56.978 0 008 32.048l-.69 1.426 7.1 7.961a47.235 47.235 0 00-1.691 6.332L2.602 51.11l-.116 1.58a57.048 57.048 0 00-.166 4.14c0 1.396.066 2.77.166 4.141l.114 1.58 10.116 3.345a46.857 46.857 0 001.691 6.331l-7.103 7.966.694 1.428a57.28 57.28 0 004.135 7.147l.891 1.31 10.401-2.165a48.117 48.117 0 004.662 4.663l-2.163 10.401 1.31.891a57.059 57.059 0 007.15 4.136l1.427.689 7.963-7.099a47.28 47.28 0 006.332 1.691l3.344 10.117 1.58.114a58.38 58.38 0 004.138.163c1.395 0 2.77-.066 4.14-.166l1.58-.114 3.345-10.116a46.905 46.905 0 006.332-1.691l7.966 7.103 1.428-.694a57.279 57.279 0 007.146-4.135l1.31-.891-2.165-10.4a48.14 48.14 0 004.664-4.662l10.401 2.162.891-1.31a57.057 57.057 0 004.135-7.15l.69-1.427-7.104-7.96a47.372 47.372 0 001.691-6.332l10.117-3.345.113-1.58c.102-1.371.169-2.745.169-4.14 0-1.395-.067-2.77-.166-4.14l-.114-1.58zm-4.515 7.943l-9.794 3.237-.232 1.42a42.317 42.317 0 01-2.191 8.202l-.507 1.34 6.864 7.704a51.012 51.012 0 01-2.217 3.83l-10.06-2.094-.91 1.113a43.148 43.148 0 01-6.037 6.036l-1.113.91 2.096 10.059a53.526 53.526 0 01-3.83 2.219l-7.703-6.869-1.343.512a42.317 42.317 0 01-8.2 2.189l-1.42.232-3.237 9.794c-1.471.074-2.975.074-4.446 0l-3.238-9.794-1.419-.232a42.087 42.087 0 01-8.2-2.191l-1.343-.51-7.703 6.867a51.71 51.71 0 01-3.83-2.217l2.093-10.06-1.113-.91a43.143 43.143 0 01-6.035-6.037l-.91-1.113-10.06 2.096a53.418 53.418 0 01-2.22-3.83l6.87-7.703-.512-1.343a42.315 42.315 0 01-2.188-8.2l-.232-1.42-9.795-3.237a45.973 45.973 0 01.007-4.444l9.795-3.238.232-1.419a42.085 42.085 0 012.19-8.2l.51-1.343-6.867-7.703a51.466 51.466 0 012.217-3.83l10.06 2.094.91-1.114a43.148 43.148 0 016.038-6.035l1.113-.91-2.096-10.06a53.418 53.418 0 013.83-2.219l7.703 6.867 1.34-.507c2.641-1 5.4-1.736 8.203-2.191l1.419-.232 3.238-9.795a44.893 44.893 0 014.446 0l3.238 9.795 1.419.232a42.087 42.087 0 018.2 2.19l1.343.51 7.703-6.867a51.45 51.45 0 013.83 2.217l-2.094 10.06 1.114.91a43.148 43.148 0 016.035 6.038l.91 1.113 10.059-2.096a53.538 53.538 0 012.22 3.83l-6.87 7.703.512 1.343a42.344 42.344 0 012.189 8.2l.232 1.419 9.795 3.238c.028.734.049 1.476.049 2.222s-.021 1.487-.057 2.221z"/><path d="M58.479 23.68c-12.291.348-22.602 10.63-22.983 22.921a23.57 23.57 0 008.167 18.64c3.833 3.316 6.03 7.96 6.03 12.909v11.843H56.8v4.738h4.737v-4.738h7.106V77.99c0-4.738 2.243-9.425 6.156-12.858a23.654 23.654 0 008.056-17.774c0-6.457-2.549-12.488-7.18-16.988-4.628-4.498-10.753-6.805-17.196-6.69zm5.427 61.576H54.43v-4.737h9.475v4.737zm7.769-23.687c-4.311 3.785-7.018 8.826-7.634 14.212h-2.504V53.075l6.412-6.412-3.35-3.35-5.43 5.432-5.432-5.431-3.35 3.349 6.413 6.412V75.78h-2.487c-.58-5.356-3.26-10.41-7.552-14.122a18.86 18.86 0 01-6.533-14.91c.306-9.83 8.551-18.055 18.384-18.332 5.182-.178 10.057 1.748 13.762 5.349 3.704 3.6 5.744 8.425 5.744 13.591a18.911 18.911 0 01-6.443 14.212z"/></g><defs><clipPath id="dclip0"><path fill="#fff" d="M0 0h116v116H0z"/></clipPath></defs></svg><svg viewBox="0 0 60 60" id="instagram" xmlns="http://www.w3.org/2000/svg"><path fill-rule="evenodd" clip-rule="evenodd" d="M40 5H20C11.716 5 5 11.716 5 20v20c0 8.284 6.716 15 15 15h20c8.284 0 15-6.716 15-15V20c0-8.284-6.716-15-15-15zM10 20c0-5.523 4.477-10 10-10h20c5.523 0 10 4.477 10 10v20c0 5.523-4.477 10-10 10H20c-5.523 0-10-4.477-10-10V20zm20 22.5c-6.904 0-12.5-5.596-12.5-12.5S23.096 17.5 30 17.5 42.5 23.096 42.5 30 36.904 42.5 30 42.5zm0-5a7.5 7.5 0 100-15 7.5 7.5 0 000 15zm15-20a2.5 2.5 0 11-5 0 2.5 2.5 0 015 0z"/></svg><svg viewBox="0 0 60 60" id="linkedin" xmlns="http://www.w3.org/2000/svg"><path fill-rule="evenodd" clip-rule="evenodd" d="M10 5h40a5 5 0 015 5v40a5 5 0 01-5 5H10a5 5 0 01-5-5V10a5 5 0 015-5zm0 5v40h40V10H10zm22.5 12.5c-1.294 0-2.662.396-3.87 1.13L27.5 22.5H25V40h5V30c0-1.44 1.485-2.5 2.5-2.5H35c1.015 0 2.5 1.06 2.5 2.5v10h5V30c0-4.632-4.015-7.5-7.5-7.5h-2.5zM20 20a2.5 2.5 0 100-5 2.5 2.5 0 000 5zm-2.5 2.5V40h5V22.5h-5z"/></svg><svg fill="none" viewBox="0 0 202 117" id="logo-footer" xmlns="http://www.w3.org/2000/svg"><g filter="url(#gfilter0_d)"><path d="M95.588 57.02h-19.63c-.083.017-.166.017-.249.033-1.405.217-1.422.683-1.422.683l.033 2.616c-.281 1.466 1.704 1.299 1.704 1.299h23.848c-.827-1.416-2.2-2.948-4.284-4.63zM119.883 57.953l-1.141 3.032s-.149.766-2.167.666h-.578c-.48-1.466-1.241-2.998-2.365-4.614h3.87c0-.017 2.745-.05 2.381.916zM117.237 63.766c-.149.434-.397 1.116-.612 1.716 0-.8-.083-1.649-.281-2.515.579.117 1.042.35.893.8z" fill="#F1F1F1"/><path fill-rule="evenodd" clip-rule="evenodd" d="M94.74 67.456h5.44c.744-1.3.976-2.832.298-4.63H75.935c-1.604.182-1.637.716-1.637.716l.033 2.615c-.265 1.466 1.604 1.3 1.604 1.3H79.442l.056.109H94.83a17.228 17.228 0 01-.099-.11h.01z" fill="#F1F1F1"/><path d="M91.503 62.833c-.132-.25-.264-.516-.397-.782.116.266.249.533.397.782z" fill="#39B54A"/><path fill-rule="evenodd" clip-rule="evenodd" d="M113.764 73.528c1.521-2.032 2.877-4.764 2.877-8.046-.016-.8-.099-1.649-.281-2.482a14.515 14.515 0 00-.364-1.332c-.463-1.466-1.24-2.998-2.365-4.614-2.166-3.082-5.689-6.413-11.08-9.911-7.376-4.798-10.485-8.629-11.097-11.677a20.69 20.69 0 00-.993 1.815s-2.894 5.98-2.249 14.026c.05.316.1.616.149.916.43.3.91.6 1.422.9 2.365 1.382 4.284 2.698 5.805 3.93 2.084 1.683 3.44 3.216 4.267 4.615.232.416.43.816.579 1.2.695 1.782.463 3.314-.298 4.613-.579 1.016-1.488 1.883-2.514 2.632a18.2 18.2 0 01-1.637 1.033c-.13.054-.26.116-.385.175-.066.032-.13.063-.194.091 0 0-.463.3-1.389.683-1.78.757-5.256 1.856-10.202 1.818-.004-.006-.008-.013-.014-.019a36.258 36.258 0 01-3.87-.266 37.27 37.27 0 01-4.317-.8s-.744-.35-1.472-.15c-.48.133-.942.483-1.207 1.316-.538 1.745-1.413 5.76-1.7 7.073l-.07.323v.117c-.016.05-.016.066-.016.066s-.133.35-.149.783v.033c0 .617.215 1.383 1.29 1.666l.392.104c1.937.517 7.32 1.956 13.698 1.462 2.564-.067 5.31-.367 8.088-1.05 0 0 1.009-.216 2.613-.716.159-.04.318-.092.48-.145.109-.035.218-.071.33-.105l-.094-.035c3.159-1.058 7.892-2.981 11.882-6.044l.016-.017a22.622 22.622 0 002.035-1.749c.136-.137.275-.276.417-.416.288-.287.584-.581.873-.883.198-.233.396-.467.578-.716l.017-.017.149-.2z" fill="url(#gpaint0_linear)"/><path fill-rule="evenodd" clip-rule="evenodd" d="M120.941 16.11l-2.199 8.645s-.645 1.782-2.481.716c0 0-10.485-1.849-14.322.783 0 0-5.854 1.3-10.485 9.178-.307.5-.587 1.039-.877 1.594l-.115.222s-2.895 5.98-2.25 14.025c.05.317.1.617.15.916.347 2.066.677 3.632.958 4.831H75.958c-.447-2.882-.53-5.663-.53-5.663-.132-4.131.281-8.812 1.44-14.11 0 0 2.546-12.142 15.165-19.422 0 0 11.907-8.279 28.214-3.148-.002 0 .004.003.015.01.112.072.8.513.679 1.423zm-24.94 55.019c.563-.317 1.109-.65 1.638-1.033a18.756 18.756 0 01-1.205-.956l-.052-.043a21.882 21.882 0 01-1.654-1.633H79.397a35.158 35.158 0 002.845 4.614h-.016c.463.633.926 1.25 1.405 1.816h.017c5.028.067 8.567-1.05 10.386-1.816.91-.383 1.39-.683 1.39-.683.129-.054.259-.116.384-.175l.194-.091zM122 82.589v-.183c-.033-.45-.165-.8-.165-.8s-1.009-5.396-1.604-7.512c-.596-2.115-2.415-1.182-2.415-1.182a29.029 29.029 0 01-4.217.85l-.267.328-.001.001c-.107.13-.211.259-.311.387-.43.45-.86.882-1.29 1.299a25.238 25.238 0 01-2.034 1.749l-.017.017c-4.035 3.098-8.831 5.03-11.99 6.08 1.968.749 3.291 1.066 3.291 1.066 3.572.966 7.062 1.166 10.105 1.016.066 0 .136-.005.207-.009.07-.004.14-.008.206-.008.075-.008.149-.013.224-.017.074-.004.149-.008.223-.016.281-.017.562-.034.827-.067.149 0 .281-.017.413-.033.05-.009.1-.013.149-.017.05-.004.099-.008.149-.017.033-.016.066-.016.099-.016l.397-.05.188-.025h.005l.124-.017.064-.008.19-.025.19-.025c.217-.044.434-.075.64-.104l.088-.013c.115-.033.231-.05.347-.066.066-.009.132-.021.198-.034.067-.012.133-.025.199-.033s.132-.02.198-.033h.001c.066-.013.132-.025.198-.034a.819.819 0 00.198-.033H116.825c.165-.033.33-.067.478-.1h.033c.1-.033.182-.05.282-.067l.107-.025.041-.009a1.13 1.13 0 00.042-.01l.025-.006c.132-.016.264-.05.396-.083.061-.015.121-.027.18-.038.07-.014.138-.027.201-.045l.397-.1c.057-.01.114-.025.168-.039l.113-.028c.083-.016.149-.033.215-.05a.225.225 0 01.058-.016c.02-.004.041-.009.058-.017a.462.462 0 01.066-.017.515.515 0 00.066-.016c.067-.027.134-.043.192-.057l.04-.01c.137-.037.266-.07.381-.1.149-.038.277-.072.379-.1.976-.25 1.241-.916 1.257-1.482zM77.43 62.834h14.073a6.91 6.91 0 01-.397-.782l-.05-.1c-.049-.1-.099-.2-.148-.317H77.049c.116.416.248.816.38 1.2z" fill="url(#gpaint1_linear)"/></g><path d="M8.351 101.37H9.42v4.125a5.114 5.114 0 01-1.746 1.02 6.333 6.333 0 01-2.121.355c-1.054 0-2.002-.237-2.844-.71a5.187 5.187 0 01-1.987-1.963C.241 103.353 0 102.411 0 101.37c0-1.04.24-1.977.722-2.812a5.157 5.157 0 011.987-1.977c.842-.474 1.795-.71 2.859-.71.802 0 1.54.133 2.212.4a4.32 4.32 0 011.7 1.16l-.692.726c-.833-.845-1.891-1.267-3.175-1.267-.853 0-1.625.196-2.318.587a4.145 4.145 0 00-1.61 1.607c-.39.68-.587 1.442-.587 2.286 0 .845.196 1.607.587 2.287a4.28 4.28 0 001.61 1.606c.683.392 1.45.588 2.303.588 1.083 0 2.001-.279 2.753-.835v-3.646zM12.571 95.963h1.114v9.826h5.898v.989h-7.012V95.963zM25.83 106.87c-1.042 0-1.99-.237-2.843-.71a5.31 5.31 0 01-1.986-1.978c-.472-.834-.707-1.771-.707-2.812 0-1.04.235-1.977.707-2.812a5.187 5.187 0 011.986-1.962c.853-.484 1.8-.726 2.844-.726 1.043 0 1.981.237 2.814.71a5.157 5.157 0 011.986 1.978c.482.835.722 1.772.722 2.812 0 1.041-.24 1.983-.722 2.827a5.186 5.186 0 01-1.986 1.963c-.833.473-1.77.71-2.814.71zm0-1.019c.834 0 1.586-.191 2.258-.572a4.205 4.205 0 001.58-1.607c.381-.69.572-1.457.572-2.302 0-.844-.19-1.607-.572-2.286a4.07 4.07 0 00-1.58-1.607c-.672-.391-1.424-.587-2.257-.587-.833 0-1.59.196-2.272.587a4.176 4.176 0 00-1.595 1.607c-.381.68-.572 1.442-.572 2.286 0 .845.19 1.612.572 2.302.391.68.923 1.216 1.595 1.607a4.58 4.58 0 002.272.572zM40.485 101.2c.692.155 1.224.464 1.595.927.381.453.572 1.041.572 1.761 0 .927-.336 1.643-1.008 2.148-.662.494-1.645.742-2.95.742H33.85V95.963h4.545c1.173 0 2.081.242 2.723.726.652.484.978 1.17.978 2.055 0 .597-.145 1.107-.436 1.529-.281.412-.672.721-1.174.927zm-5.522-4.295v3.925h3.355c.853 0 1.51-.165 1.971-.495.462-.34.693-.829.693-1.468 0-.638-.231-1.122-.693-1.452-.46-.34-1.118-.51-1.97-.51h-3.356zm3.716 8.93c.943 0 1.656-.165 2.137-.494.482-.33.722-.845.722-1.545 0-1.349-.952-2.024-2.858-2.024h-3.717v4.063h3.716zM51.8 103.888h-5.87l-1.263 2.89h-1.159l4.816-10.815h1.098l4.815 10.815h-1.174l-1.264-2.89zm-.407-.926l-2.528-5.81-2.528 5.81h5.056zM55.98 95.963h1.113v9.826h5.899v.989H55.98V95.963zM68.779 95.963h1.113v9.826h5.899v.989h-7.012V95.963zM85.088 105.789v.989H77.64V95.963h7.222v.989h-6.109v3.847H84.2v.973h-5.447v4.017h6.335zM94.311 103.888h-5.868l-1.264 2.89H86.02l4.815-10.815h1.099l4.815 10.815h-1.174l-1.264-2.89zm-.406-.926l-2.528-5.81-2.528 5.81h5.056zM98.492 95.963h4.288c1.114 0 2.097.232 2.949.695a4.878 4.878 0 011.987 1.916c.471.814.707 1.746.707 2.796 0 1.051-.236 1.988-.707 2.812a5.015 5.015 0 01-1.987 1.916c-.852.453-1.835.68-2.949.68h-4.288V95.963zm4.228 9.826c.923 0 1.73-.186 2.423-.556a4.113 4.113 0 001.61-1.561c.381-.669.571-1.437.571-2.302s-.19-1.627-.571-2.286a3.975 3.975 0 00-1.61-1.56c-.693-.382-1.5-.572-2.423-.572h-3.115v8.837h3.115zM117.766 106.87a6.68 6.68 0 01-2.257-.386c-.713-.257-1.264-.597-1.656-1.02l.437-.88c.381.391.888.71 1.52.958a5.549 5.549 0 001.956.355c.943 0 1.65-.175 2.121-.525.472-.361.708-.824.708-1.391 0-.432-.131-.777-.392-1.035a2.426 2.426 0 00-.933-.587 13.352 13.352 0 00-1.549-.463c-.793-.206-1.425-.402-1.896-.588a3.242 3.242 0 01-1.219-.88c-.331-.392-.497-.922-.497-1.591 0-.546.141-1.04.421-1.484.281-.453.713-.813 1.295-1.081.581-.268 1.304-.402 2.166-.402.602 0 1.189.088 1.761.263a4.884 4.884 0 011.505.695l-.377.912a4.939 4.939 0 00-1.414-.665 4.995 4.995 0 00-1.475-.231c-.923 0-1.62.185-2.091.556-.462.36-.692.829-.692 1.406 0 .432.125.782.376 1.05.261.258.582.459.963.603.391.134.913.283 1.565.448.772.195 1.394.391 1.866.587.481.185.887.474 1.218.865.332.381.497.901.497 1.56 0 .546-.145 1.046-.436 1.499-.281.443-.718.798-1.309 1.066-.592.257-1.32.386-2.182.386zM128.724 106.87c-1.044 0-1.992-.237-2.844-.71a5.304 5.304 0 01-1.986-1.978c-.472-.834-.708-1.771-.708-2.812 0-1.04.236-1.977.708-2.812a5.181 5.181 0 011.986-1.962c.852-.484 1.8-.726 2.844-.726 1.043 0 1.981.237 2.814.71a5.164 5.164 0 011.986 1.978c.481.835.722 1.772.722 2.812 0 1.041-.241 1.983-.722 2.827a5.194 5.194 0 01-1.986 1.963c-.833.473-1.771.71-2.814.71zm0-1.019c.832 0 1.585-.191 2.257-.572a4.205 4.205 0 001.58-1.607c.381-.69.572-1.457.572-2.302 0-.844-.191-1.607-.572-2.286a4.07 4.07 0 00-1.58-1.607c-.672-.391-1.425-.587-2.257-.587-.833 0-1.59.196-2.272.587a4.167 4.167 0 00-1.595 1.607c-.382.68-.572 1.442-.572 2.286 0 .845.19 1.612.572 2.302.391.68.922 1.216 1.595 1.607a4.578 4.578 0 002.272.572zM136.742 95.963h1.114v9.826h5.898v.989h-7.012V95.963zM149.655 106.87c-1.364 0-2.427-.401-3.19-1.205-.762-.803-1.143-1.972-1.143-3.507v-6.195h1.113v6.149c0 1.256.276 2.194.828 2.812.552.618 1.349.927 2.392.927 1.054 0 1.856-.309 2.408-.927.552-.618.828-1.556.828-2.812v-6.15h1.083v6.196c0 1.535-.381 2.704-1.144 3.507-.752.804-1.81 1.205-3.175 1.205zM159.17 96.952h-3.702v-.99h8.517v.99h-3.701v9.826h-1.114v-9.826zM165.764 95.963h1.114v10.815h-1.114V95.963zM174.909 106.87c-1.043 0-1.991-.237-2.844-.71a5.318 5.318 0 01-1.986-1.978c-.471-.834-.707-1.771-.707-2.812 0-1.04.236-1.977.707-2.812a5.195 5.195 0 011.986-1.962c.853-.484 1.801-.726 2.844-.726 1.044 0 1.982.237 2.814.71a5.16 5.16 0 011.987 1.978c.481.835.722 1.772.722 2.812 0 1.041-.241 1.983-.722 2.827a5.19 5.19 0 01-1.987 1.963c-.832.473-1.77.71-2.814.71zm0-1.019c.833 0 1.585-.191 2.258-.572a4.212 4.212 0 001.58-1.607c.381-.69.571-1.457.571-2.302 0-.844-.19-1.607-.571-2.286a4.077 4.077 0 00-1.58-1.607c-.673-.391-1.425-.587-2.258-.587-.832 0-1.59.196-2.272.587a4.174 4.174 0 00-1.595 1.607c-.381.68-.572 1.442-.572 2.286 0 .845.191 1.612.572 2.302.391.68.923 1.216 1.595 1.607a4.58 4.58 0 002.272.572zM191.73 95.963v10.815h-.917l-6.772-8.776v8.776h-1.113V95.963h.918l6.786 8.775v-8.775h1.098zM198.073 106.87a6.69 6.69 0 01-2.258-.386c-.712-.257-1.263-.597-1.655-1.02l.437-.88c.381.391.887.71 1.519.958a5.55 5.55 0 001.957.355c.943 0 1.65-.175 2.121-.525.472-.361.708-.824.708-1.391 0-.432-.131-.777-.392-1.035a2.426 2.426 0 00-.933-.587 13.318 13.318 0 00-1.55-.463c-.792-.206-1.424-.402-1.895-.588a3.242 3.242 0 01-1.219-.88c-.331-.392-.497-.922-.497-1.591 0-.546.141-1.04.421-1.484.281-.453.713-.813 1.295-1.081.581-.268 1.304-.402 2.166-.402.602 0 1.189.088 1.761.263a4.884 4.884 0 011.505.695l-.377.912a4.939 4.939 0 00-1.414-.665 4.995 4.995 0 00-1.475-.231c-.923 0-1.62.185-2.091.556-.462.36-.692.829-.692 1.406 0 .432.125.782.376 1.05.261.258.582.459.963.603.391.134.913.283 1.565.448.772.195 1.394.391 1.866.587.481.185.887.474 1.218.865.331.381.497.901.497 1.56 0 .546-.145 1.046-.436 1.499-.281.443-.718.798-1.31 1.066-.591.257-1.319.386-2.181.386z" fill="#F1F1F1"/><defs><linearGradient id="gpaint0_linear" x1="80.835" y1="40.997" x2="80.656" y2="89.755" gradientUnits="userSpaceOnUse"><stop stop-color="#00FBFE"/><stop offset="1" stop-color="#325CFA"/></linearGradient><linearGradient id="gpaint1_linear" x1="110.575" y1="11.339" x2="90.936" y2="90.401" gradientUnits="userSpaceOnUse"><stop offset=".015" stop-color="#325CFA"/><stop offset="1" stop-color="#00EFFF"/></linearGradient><filter id="gfilter0_d" x="56" y="0" width="95" height="116.749" filterUnits="userSpaceOnUse" color-interpolation-filters="sRGB"><feFlood flood-opacity="0" result="BackgroundImageFix"/><feColorMatrix in="SourceAlpha" values="0 0 0 0 0 0 0 0 0 0 0 0 0 0 0 0 0 0 127 0"/><feOffset dx="7" dy="9"/><feGaussianBlur stdDeviation="11"/><feColorMatrix values="0 0 0 0 0 0 0 0 0 0 0 0 0 0 0 0 0 0 0.25 0"/><feBlend in2="BackgroundImageFix" result="effect1_dropShadow"/><feBlend in="SourceGraphic" in2="effect1_dropShadow" result="shape"/></filter></defs></svg><svg fill="none" viewBox="0 0 202 114" id="logo-header" xmlns="http://www.w3.org/2000/svg"><g filter="url(#hfilter0_d)"><path d="M95.588 55.262h-19.63c-.083.016-.166.016-.249.031-1.405.203-1.422.64-1.422.64l.033 2.452c-.281 1.375 1.704 1.218 1.704 1.218h23.848c-.827-1.327-2.2-2.764-4.284-4.34z" fill="url(#hpaint0_linear)"/><path d="M119.883 56.137l-1.141 2.842s-.149.718-2.167.624h-.578c-.48-1.374-1.241-2.81-2.365-4.325h3.87c0-.016 2.745-.047 2.381.859z" fill="url(#hpaint1_linear)"/><path d="M117.237 61.586c-.149.406-.397 1.047-.612 1.609 0-.75-.083-1.546-.281-2.358.579.11 1.042.328.893.75z" fill="url(#hpaint2_linear)"/><path fill-rule="evenodd" clip-rule="evenodd" d="M94.74 65.045h5.44c.744-1.218.976-2.654.298-4.34H75.935c-1.604.171-1.637.67-1.637.67l.033 2.452c-.265 1.374 1.604 1.218 1.604 1.218H79.442l.056.103H94.83a16.07 16.07 0 01-.099-.103h.01z" fill="url(#hpaint3_linear)"/><path d="M91.503 60.712c-.132-.234-.264-.484-.397-.734.116.25.249.5.397.734z" fill="#39B54A"/><path fill-rule="evenodd" clip-rule="evenodd" d="M113.764 70.737c1.521-1.905 2.877-4.466 2.877-7.542a11.395 11.395 0 00-.281-2.327 12.936 12.936 0 00-.364-1.249c-.463-1.374-1.24-2.81-2.365-4.325-2.166-2.89-5.689-6.012-11.08-9.291-7.376-4.498-10.485-8.09-11.097-10.947-.348.531-.678 1.093-.993 1.702 0 0-2.894 5.606-2.249 13.148.05.297.1.578.149.86.43.28.91.561 1.422.842 2.365 1.297 4.284 2.53 5.805 3.686 2.084 1.577 3.44 3.014 4.267 4.325.232.39.43.765.579 1.124.695 1.671.463 3.108-.298 4.326-.579.953-1.488 1.764-2.514 2.467a18.39 18.39 0 01-1.637.968c-.13.051-.26.11-.385.165l-.194.085s-.463.281-1.389.64c-1.78.71-5.256 1.74-10.202 1.704a.085.085 0 00-.014-.017 38.647 38.647 0 01-3.87-.25 39.491 39.491 0 01-4.317-.75s-.744-.328-1.472-.14c-.48.125-.942.453-1.207 1.233-.538 1.636-1.413 5.4-1.7 6.631l-.07.303v.109c-.016.047-.016.062-.016.062s-.133.328-.149.734v.032c0 .577.215 1.296 1.29 1.561l.392.097c1.937.486 7.32 1.834 13.698 1.371 2.564-.063 5.31-.344 8.088-.984 0 0 1.009-.203 2.613-.671.159-.038.318-.087.48-.137.109-.033.218-.066.33-.097l-.094-.034c3.159-.991 7.892-2.794 11.882-5.666l.016-.016c.711-.5 1.39-1.061 2.035-1.64l.417-.39c.288-.268.584-.544.873-.827.198-.219.396-.437.578-.672l.017-.015.149-.188z" fill="url(#hpaint4_linear)"/><path fill-rule="evenodd" clip-rule="evenodd" d="M120.941 16.91l-2.199 8.105s-.645 1.67-2.481.671c0 0-10.485-1.733-14.322.735 0 0-5.854 1.218-10.485 8.604-.307.468-.587.973-.877 1.493l-.115.209s-2.895 5.606-2.25 13.148c.05.297.1.578.15.859.347 1.936.677 3.404.958 4.528H75.958a45.889 45.889 0 01-.53-5.309c-.132-3.873.281-8.26 1.44-13.226 0 0 2.546-11.384 15.165-18.208 0 0 11.907-7.76 28.214-2.951-.002 0 .004.003.015.01.112.067.8.48.679 1.333zm-24.94 51.578a17.085 17.085 0 001.638-.968c-.427-.284-.824-.596-1.205-.896l-.052-.04a21.305 21.305 0 01-1.654-1.531H79.397a32.694 32.694 0 002.845 4.326h-.016c.463.593.926 1.17 1.405 1.701h.017c5.028.063 8.567-.983 10.386-1.701.91-.36 1.39-.64 1.39-.64.129-.052.259-.11.384-.165l.194-.086zM122 79.232v-.172c-.033-.421-.165-.749-.165-.749s-1.009-5.06-1.604-7.043c-.596-1.983-2.415-1.108-2.415-1.108-1.488.39-2.894.64-4.217.796-.09.106-.18.209-.268.31-.107.122-.211.242-.311.361-.43.422-.86.828-1.29 1.219-.645.577-1.34 1.14-2.034 1.64l-.017.015c-4.035 2.904-8.831 4.716-11.99 5.7 1.968.702 3.291.999 3.291.999 3.572.906 7.062 1.093 10.105.952.066 0 .136-.004.207-.007.07-.004.14-.008.206-.008a4.32 4.32 0 01.224-.016c.074-.004.149-.008.223-.015.281-.016.562-.032.827-.063.149 0 .281-.016.413-.031.05-.008.1-.012.149-.016a1.93 1.93 0 00.149-.015c.033-.016.066-.016.099-.016l.397-.047.19-.023.191-.024.061-.007.128-.016h.001l.19-.024c.217-.04.434-.07.64-.097l.088-.012c.115-.031.231-.047.347-.062.066-.008.132-.02.198-.032.067-.011.133-.023.199-.03.066-.009.132-.02.198-.032s.133-.023.199-.031a.872.872 0 00.198-.032h.017c.165-.03.33-.062.479-.093h.033c.1-.031.182-.047.282-.063l.107-.023.108-.023c.132-.016.264-.047.396-.079.061-.014.121-.025.18-.035.07-.013.138-.026.201-.043l.397-.093c.057-.01.114-.023.168-.037l.069-.017.044-.009a4.45 4.45 0 00.215-.047.238.238 0 01.058-.015c.02-.004.041-.008.058-.016a.532.532 0 01.066-.016.532.532 0 00.066-.015c.067-.025.134-.04.192-.053l.04-.01a42.547 42.547 0 01.381-.093h.001l.003-.001.375-.093c.976-.234 1.241-.859 1.257-1.39zm-44.57-18.52h14.073a6.335 6.335 0 01-.397-.734l-.05-.094c-.049-.093-.099-.187-.148-.296H77.049c.116.39.248.765.38 1.124z" fill="url(#hpaint5_linear)"/></g><path d="M8.351 103.5H9.42v4.125a5.114 5.114 0 01-1.746 1.02 6.333 6.333 0 01-2.121.355c-1.054 0-2.002-.237-2.844-.711a5.177 5.177 0 01-1.987-1.962C.241 105.483 0 104.54 0 103.5s.24-1.978.722-2.812a5.157 5.157 0 011.987-1.977C3.55 98.237 4.504 98 5.568 98c.802 0 1.54.134 2.212.402a4.32 4.32 0 011.7 1.158l-.692.727c-.833-.845-1.891-1.267-3.175-1.267-.853 0-1.625.195-2.318.587a4.145 4.145 0 00-1.61 1.606c-.39.68-.587 1.442-.587 2.287s.196 1.607.587 2.287a4.288 4.288 0 001.61 1.606c.683.392 1.45.587 2.303.587 1.083 0 2.001-.278 2.753-.834V103.5z" fill="url(#hpaint6_linear)"/><path d="M12.571 98.093h1.114v9.826h5.898v.988h-7.012V98.093z" fill="url(#hpaint7_linear)"/><path d="M25.83 109c-1.042 0-1.99-.237-2.843-.711a5.3 5.3 0 01-1.986-1.977c-.472-.834-.707-1.772-.707-2.812 0-1.04.235-1.978.707-2.812a5.188 5.188 0 011.986-1.962c.853-.484 1.8-.726 2.844-.726 1.043 0 1.981.237 2.814.71a5.157 5.157 0 011.986 1.978c.482.834.722 1.772.722 2.812 0 1.04-.24 1.983-.722 2.827a5.177 5.177 0 01-1.986 1.962c-.833.474-1.77.711-2.814.711zm0-1.02c.834 0 1.586-.19 2.258-.571a4.212 4.212 0 001.58-1.607c.381-.69.572-1.457.572-2.302s-.19-1.607-.572-2.287a4.07 4.07 0 00-1.58-1.606c-.672-.392-1.424-.587-2.257-.587-.833 0-1.59.195-2.272.587a4.175 4.175 0 00-1.595 1.606c-.381.68-.572 1.442-.572 2.287s.19 1.612.572 2.302c.391.68.923 1.215 1.595 1.607.682.381 1.44.571 2.272.571z" fill="url(#hpaint8_linear)"/><path d="M40.485 103.33c.692.155 1.224.464 1.595.927.381.453.572 1.04.572 1.761 0 .927-.336 1.643-1.008 2.148-.662.494-1.645.741-2.95.741H33.85V98.093h4.545c1.173 0 2.081.242 2.723.726.652.484.978 1.169.978 2.055 0 .597-.145 1.107-.436 1.529-.281.412-.672.721-1.174.927zm-5.522-4.295v3.924h3.355c.853 0 1.51-.165 1.971-.494.462-.34.693-.829.693-1.468 0-.638-.231-1.123-.693-1.452-.46-.34-1.118-.51-1.97-.51h-3.356zm3.716 8.93c.943 0 1.656-.165 2.137-.494.482-.33.722-.845.722-1.545 0-1.35-.952-2.024-2.858-2.024h-3.717v4.063h3.716z" fill="url(#hpaint9_linear)"/><path d="M51.8 106.018h-5.87l-1.263 2.889h-1.159l4.816-10.814h1.098l4.815 10.814h-1.174l-1.264-2.889zm-.407-.927l-2.528-5.809-2.528 5.809h5.056z" fill="url(#hpaint10_linear)"/><path d="M55.98 98.093h1.113v9.826h5.899v.988H55.98V98.093z" fill="url(#hpaint11_linear)"/><path d="M68.779 98.093h1.113v9.826h5.899v.988h-7.012V98.093z" fill="url(#hpaint12_linear)"/><path d="M85.088 107.919v.988H77.64V98.093h7.222v.989h-6.109v3.846H84.2v.974h-5.447v4.017h6.335z" fill="url(#hpaint13_linear)"/><path d="M94.311 106.018h-5.868l-1.264 2.889H86.02l4.815-10.814h1.099l4.815 10.814h-1.174l-1.264-2.889zm-.406-.927l-2.528-5.809-2.528 5.809h5.056z" fill="url(#hpaint14_linear)"/><path d="M98.492 98.093h4.288c1.114 0 2.097.231 2.949.695a4.877 4.877 0 011.987 1.916c.471.813.707 1.745.707 2.796 0 1.051-.236 1.988-.707 2.812a5.021 5.021 0 01-1.987 1.916c-.852.453-1.835.679-2.949.679h-4.288V98.093zm4.228 9.826c.923 0 1.73-.186 2.423-.557a4.11 4.11 0 001.61-1.56c.381-.67.571-1.437.571-2.302s-.19-1.627-.571-2.287a3.978 3.978 0 00-1.61-1.56c-.693-.381-1.5-.572-2.423-.572h-3.115v8.838h3.115z" fill="url(#hpaint15_linear)"/><path d="M117.766 109a6.68 6.68 0 01-2.257-.386c-.713-.258-1.264-.598-1.656-1.02l.437-.881c.381.392.888.711 1.52.958a5.527 5.527 0 001.956.356c.943 0 1.65-.175 2.121-.526.472-.36.708-.824.708-1.39 0-.433-.131-.778-.392-1.035a2.414 2.414 0 00-.933-.587 13.523 13.523 0 00-1.549-.464c-.793-.206-1.425-.401-1.896-.587a3.242 3.242 0 01-1.219-.88c-.331-.392-.497-.922-.497-1.592 0-.546.141-1.04.421-1.483.281-.453.713-.814 1.295-1.081.581-.268 1.304-.402 2.166-.402.602 0 1.189.088 1.761.263a4.884 4.884 0 011.505.695l-.376.911a4.957 4.957 0 00-1.415-.664 4.996 4.996 0 00-1.475-.232c-.923 0-1.62.186-2.091.556-.462.361-.692.83-.692 1.406 0 .433.125.783.376 1.051.261.257.582.458.963.602.391.134.913.284 1.565.449.772.195 1.394.391 1.866.587.481.185.887.473 1.218.865.332.381.497.901.497 1.56 0 .546-.145 1.046-.436 1.499-.281.443-.718.798-1.309 1.066-.592.257-1.32.386-2.182.386z" fill="url(#hpaint16_linear)"/><path d="M128.724 109c-1.044 0-1.992-.237-2.844-.711a5.294 5.294 0 01-1.986-1.977c-.472-.834-.708-1.772-.708-2.812 0-1.04.236-1.978.708-2.812a5.182 5.182 0 011.986-1.962c.852-.484 1.8-.726 2.844-.726 1.043 0 1.981.237 2.814.71a5.164 5.164 0 011.986 1.978c.481.834.722 1.772.722 2.812 0 1.04-.241 1.983-.722 2.827a5.184 5.184 0 01-1.986 1.962c-.833.474-1.771.711-2.814.711zm0-1.02c.832 0 1.585-.19 2.257-.571a4.212 4.212 0 001.58-1.607c.381-.69.572-1.457.572-2.302s-.191-1.607-.572-2.287a4.07 4.07 0 00-1.58-1.606c-.672-.392-1.425-.587-2.257-.587-.833 0-1.59.195-2.272.587a4.167 4.167 0 00-1.595 1.606c-.382.68-.572 1.442-.572 2.287s.19 1.612.572 2.302c.391.68.922 1.215 1.595 1.607a4.577 4.577 0 002.272.571z" fill="url(#hpaint17_linear)"/><path d="M136.742 98.093h1.114v9.826h5.898v.988h-7.012V98.093z" fill="url(#hpaint18_linear)"/><path d="M149.655 109c-1.364 0-2.427-.402-3.19-1.205-.762-.803-1.143-1.972-1.143-3.507v-6.195h1.113v6.149c0 1.256.276 2.193.828 2.811.552.618 1.349.927 2.392.927 1.054 0 1.856-.309 2.408-.927.552-.618.828-1.555.828-2.811v-6.15h1.083v6.196c0 1.535-.381 2.704-1.144 3.507-.752.803-1.81 1.205-3.175 1.205z" fill="url(#hpaint19_linear)"/><path d="M159.17 99.082h-3.702v-.99h8.517v.99h-3.701v9.825h-1.114v-9.825z" fill="url(#hpaint20_linear)"/><path d="M165.764 98.093h1.114v10.814h-1.114V98.093z" fill="url(#hpaint21_linear)"/><path d="M174.909 109c-1.043 0-1.991-.237-2.844-.711a5.308 5.308 0 01-1.986-1.977c-.471-.834-.707-1.772-.707-2.812 0-1.04.236-1.978.707-2.812a5.196 5.196 0 011.986-1.962c.853-.484 1.801-.726 2.844-.726 1.044 0 1.982.237 2.814.71a5.16 5.16 0 011.987 1.978c.481.834.722 1.772.722 2.812 0 1.04-.241 1.983-.722 2.827a5.18 5.18 0 01-1.987 1.962c-.832.474-1.77.711-2.814.711zm0-1.02c.833 0 1.585-.19 2.258-.571a4.219 4.219 0 001.58-1.607c.381-.69.571-1.457.571-2.302s-.19-1.607-.571-2.287a4.076 4.076 0 00-1.58-1.606c-.673-.392-1.425-.587-2.258-.587-.832 0-1.59.195-2.272.587a4.174 4.174 0 00-1.595 1.606c-.381.68-.572 1.442-.572 2.287s.191 1.612.572 2.302c.391.68.923 1.215 1.595 1.607a4.58 4.58 0 002.272.571z" fill="url(#hpaint22_linear)"/><path d="M191.73 98.093v10.814h-.917l-6.772-8.775v8.775h-1.113V98.093h.918l6.786 8.775v-8.775h1.098z" fill="url(#hpaint23_linear)"/><path d="M198.073 109a6.69 6.69 0 01-2.258-.386c-.712-.258-1.263-.598-1.655-1.02l.437-.881c.381.392.887.711 1.519.958a5.529 5.529 0 001.957.356c.943 0 1.65-.175 2.121-.526.472-.36.708-.824.708-1.39 0-.433-.131-.778-.392-1.035a2.414 2.414 0 00-.933-.587 13.487 13.487 0 00-1.55-.464c-.792-.206-1.424-.401-1.895-.587a3.242 3.242 0 01-1.219-.88c-.331-.392-.497-.922-.497-1.592 0-.546.141-1.04.421-1.483.281-.453.713-.814 1.295-1.081.581-.268 1.304-.402 2.166-.402.602 0 1.189.088 1.761.263a4.884 4.884 0 011.505.695l-.377.911a4.939 4.939 0 00-1.414-.664 4.996 4.996 0 00-1.475-.232c-.923 0-1.62.186-2.091.556-.462.361-.692.83-.692 1.406 0 .433.125.783.376 1.051.261.257.582.458.963.602.391.134.913.284 1.565.449.772.195 1.394.391 1.866.587.481.185.887.473 1.218.865.331.381.497.901.497 1.56 0 .546-.145 1.046-.436 1.499-.281.443-.718.798-1.31 1.066-.591.257-1.319.386-2.181.386z" fill="url(#hpaint24_linear)"/><defs><linearGradient id="hpaint0_linear" x1="87.079" y1="55.262" x2="87.079" y2="59.609" gradientUnits="userSpaceOnUse"><stop stop-color="#222"/><stop offset="1" stop-color="#444"/></linearGradient><linearGradient id="hpaint1_linear" x1="116.774" y1="55.273" x2="116.774" y2="59.612" gradientUnits="userSpaceOnUse"><stop stop-color="#222"/><stop offset="1" stop-color="#444"/></linearGradient><linearGradient id="hpaint2_linear" x1="116.804" y1="60.837" x2="116.804" y2="63.195" gradientUnits="userSpaceOnUse"><stop stop-color="#222"/><stop offset="1" stop-color="#444"/></linearGradient><linearGradient id="hpaint3_linear" x1="87.589" y1="60.704" x2="87.589" y2="65.148" gradientUnits="userSpaceOnUse"><stop stop-color="#222"/><stop offset="1" stop-color="#444"/></linearGradient><linearGradient id="hpaint4_linear" x1="80.835" y1="40.242" x2="80.677" y2="85.949" gradientUnits="userSpaceOnUse"><stop stop-color="#00FBFE"/><stop offset="1" stop-color="#325CFA"/></linearGradient><linearGradient id="hpaint5_linear" x1="110.575" y1="12.439" x2="93.194" y2="87.081" gradientUnits="userSpaceOnUse"><stop offset=".015" stop-color="#325CFA"/><stop offset="1" stop-color="#00EFFF"/></linearGradient><linearGradient id="hpaint6_linear" x1="101.023" y1="93.941" x2="101.023" y2="112.77" gradientUnits="userSpaceOnUse"><stop stop-color="#222"/><stop offset="1" stop-color="#444"/></linearGradient><linearGradient id="hpaint7_linear" x1="101.023" y1="93.941" x2="101.023" y2="112.77" gradientUnits="userSpaceOnUse"><stop stop-color="#222"/><stop offset="1" stop-color="#444"/></linearGradient><linearGradient id="hpaint8_linear" x1="101.023" y1="93.941" x2="101.023" y2="112.77" gradientUnits="userSpaceOnUse"><stop stop-color="#222"/><stop offset="1" stop-color="#444"/></linearGradient><linearGradient id="hpaint9_linear" x1="101.023" y1="93.941" x2="101.023" y2="112.77" gradientUnits="userSpaceOnUse"><stop stop-color="#222"/><stop offset="1" stop-color="#444"/></linearGradient><linearGradient id="hpaint10_linear" x1="101.023" y1="93.941" x2="101.023" y2="112.77" gradientUnits="userSpaceOnUse"><stop stop-color="#222"/><stop offset="1" stop-color="#444"/></linearGradient><linearGradient id="hpaint11_linear" x1="101.023" y1="93.941" x2="101.023" y2="112.77" gradientUnits="userSpaceOnUse"><stop stop-color="#222"/><stop offset="1" stop-color="#444"/></linearGradient><linearGradient id="hpaint12_linear" x1="101.023" y1="93.941" x2="101.023" y2="112.77" gradientUnits="userSpaceOnUse"><stop stop-color="#222"/><stop offset="1" stop-color="#444"/></linearGradient><linearGradient id="hpaint13_linear" x1="101.023" y1="93.941" x2="101.023" y2="112.77" gradientUnits="userSpaceOnUse"><stop stop-color="#222"/><stop offset="1" stop-color="#444"/></linearGradient><linearGradient id="hpaint14_linear" x1="101.023" y1="93.941" x2="101.023" y2="112.77" gradientUnits="userSpaceOnUse"><stop stop-color="#222"/><stop offset="1" stop-color="#444"/></linearGradient><linearGradient id="hpaint15_linear" x1="101.023" y1="93.941" x2="101.023" y2="112.77" gradientUnits="userSpaceOnUse"><stop stop-color="#222"/><stop offset="1" stop-color="#444"/></linearGradient><linearGradient id="hpaint16_linear" x1="101.023" y1="93.941" x2="101.023" y2="112.77" gradientUnits="userSpaceOnUse"><stop stop-color="#222"/><stop offset="1" stop-color="#444"/></linearGradient><linearGradient id="hpaint17_linear" x1="101.023" y1="93.941" x2="101.023" y2="112.77" gradientUnits="userSpaceOnUse"><stop stop-color="#222"/><stop offset="1" stop-color="#444"/></linearGradient><linearGradient id="hpaint18_linear" x1="101.023" y1="93.941" x2="101.023" y2="112.77" gradientUnits="userSpaceOnUse"><stop stop-color="#222"/><stop offset="1" stop-color="#444"/></linearGradient><linearGradient id="hpaint19_linear" x1="101.023" y1="93.941" x2="101.023" y2="112.77" gradientUnits="userSpaceOnUse"><stop stop-color="#222"/><stop offset="1" stop-color="#444"/></linearGradient><linearGradient id="hpaint20_linear" x1="101.023" y1="93.941" x2="101.023" y2="112.77" gradientUnits="userSpaceOnUse"><stop stop-color="#222"/><stop offset="1" stop-color="#444"/></linearGradient><linearGradient id="hpaint21_linear" x1="101.023" y1="93.941" x2="101.023" y2="112.77" gradientUnits="userSpaceOnUse"><stop stop-color="#222"/><stop offset="1" stop-color="#444"/></linearGradient><linearGradient id="hpaint22_linear" x1="101.023" y1="93.941" x2="101.023" y2="112.77" gradientUnits="userSpaceOnUse"><stop stop-color="#222"/><stop offset="1" stop-color="#444"/></linearGradient><linearGradient id="hpaint23_linear" x1="101.023" y1="93.941" x2="101.023" y2="112.77" gradientUnits="userSpaceOnUse"><stop stop-color="#222"/><stop offset="1" stop-color="#444"/></linearGradient><linearGradient id="hpaint24_linear" x1="101.023" y1="93.941" x2="101.023" y2="112.77" gradientUnits="userSpaceOnUse"><stop stop-color="#222"/><stop offset="1" stop-color="#444"/></linearGradient><filter id="hfilter0_d" x="56" y=".996" width="95" height="112.199" filterUnits="userSpaceOnUse" color-interpolation-filters="sRGB"><feFlood flood-opacity="0" result="BackgroundImageFix"/><feColorMatrix in="SourceAlpha" values="0 0 0 0 0 0 0 0 0 0 0 0 0 0 0 0 0 0 127 0"/><feOffset dx="7" dy="9"/><feGaussianBlur stdDeviation="11"/><feColorMatrix values="0 0 0 0 0 0 0 0 0 0 0 0 0 0 0 0 0 0 0.25 0"/><feBlend in2="BackgroundImageFix" result="effect1_dropShadow"/><feBlend in="SourceGraphic" in2="effect1_dropShadow" result="shape"/></filter></defs></svg><svg viewBox="0 0 60 60" id="twitter" xmlns="http://www.w3.org/2000/svg"><path fill-rule="evenodd" clip-rule="evenodd" d="M52.799 11.736l3.537.413-1.59 3.186a6322.52 6322.52 0 01-2.328 4.662c-.093.329-.254.617-.494.993-.1.157-.442.656-.458.68-.09.135-.157.242-.205.328v5.971c0 15.28-14.787 24.99-28.752 24.99-2.858 0-5.029-.137-7.515-.68-4.091-.892-7.136-2.667-8.53-5.769l-1.433-3.193 3.485-.32c3.154-.29 5.888-.891 7.988-1.696-5.765-.927-8.995-3.459-8.995-8.214v-2.5h2.5c.55 0 1.045-.044 1.487-.126-4.326-2.587-6.493-6.736-6.493-12.492l-.002-.508c-.016-2.9.14-4.45.934-6.43A11.458 11.458 0 018.17 7.515l1.886-2.049 1.834 2.096c6.045 6.908 12.02 11.1 18.12 11.606.026-6.374 4.844-11.198 11.25-11.198 2.988 0 5.697 1.134 7.826 3.178 1.166.24 2.403.436 3.713.589zm-5.527 4.135l-.767-.173-.53-.581c-1.279-1.405-2.885-2.147-4.714-2.147-3.658 0-6.25 2.606-6.25 6.25 0 .595-.016.97-.09 1.462-.296 1.962-1.397 3.538-3.66 3.538-7.496 0-14.258-4.015-20.851-10.873-.34 1.033-.42 2.095-.409 4.087.002.267.002.267.002.536 0 5.12 2.074 7.92 6.986 9.482l1.742.553v1.83c0 2.217-2.1 4.304-5.174 5.239 1.409 1.069 4.29 1.646 8.953 1.646h2.5v2.5c0 3.582-4.116 6.386-10.333 7.85 2.027.622 4.727.89 7.832.89 11.536 0 23.752-8.022 23.752-19.99v-6.25c0-.735.213-1.372.567-2.035.138-.26.29-.506.478-.788l.271-.399.198-.396.963-1.927a42.083 42.083 0 01-1.466-.304z"/></svg></svg>