<?xml version="1.0" encoding="utf-8"?><svg viewBox="0 0 116 116" xmlns="http://www.w3.org/2000/svg" xmlns:xlink="http://www.w3.org/1999/xlink"><style>:root>svg{display:none}:root>svg:target{display:block}</style><svg viewBox="0 0 60 61" id="facebook" xmlns="http://www.w3.org/2000/svg"><path fill-rule="evenodd" clip-rule="evenodd" d="M10 5.233h40a5 5 0 015 5v40a5 5 0 01-5 5H10a5 5 0 01-5-5v-40a5 5 0 015-5zm0 5v40h40v-40H10zm17.833 20.01H32.5v14.99h5v-14.99h4.956v-5H37.5v-2.51a2.5 2.5 0 012.5-2.5h2.5v-5H40a7.5 7.5 0 00-7.5 7.5v2.51h-4.667v5z"/></svg><svg fill="none" viewBox="0 0 116 116" id="icon-card1" xmlns="http://www.w3.org/2000/svg"><g clip-path="url(#bclip0)" fill="#F1F1F1"><path d="M53.165 111.091C23.852 111.091 0 87.24 0 57.927 0 28.612 23.852 4.76 53.165 4.76a52.99 52.99 0 0128.68 8.405 3.627 3.627 0 11-3.92 6.105 45.714 45.714 0 00-24.76-7.26C27.85 12.011 7.25 32.61 7.25 57.926s20.599 45.915 45.915 45.915S99.08 83.242 99.08 57.927c0-1.514-.073-3.012-.212-4.486a3.624 3.624 0 013.257-3.958 3.629 3.629 0 013.959 3.258c.163 1.706.246 3.436.246 5.185 0 29.314-23.851 53.165-53.165 53.165z"/><path d="M59.206 70.01a3.599 3.599 0 01-2.561-1.064l-21.75-21.75a3.627 3.627 0 015.128-5.127l19.188 19.188 50.598-50.6a3.627 3.627 0 015.129 5.128L61.773 68.951a3.632 3.632 0 01-2.567 1.058z"/></g><defs><clipPath id="bclip0"><path fill="#fff" d="M0 0h116v116H0z"/></clipPath></defs></svg><svg fill="none" viewBox="0 0 98 116" id="icon-card2" xmlns="http://www.w3.org/2000/svg"><path d="M97.365 103.259L81.82 66.184a1.882 1.882 0 00-2.448-1.002 1.843 1.843 0 00-1.014 2.419l14.052 33.517-12.818-3.67a1.882 1.882 0 00-2.162.886l-6.438 11.548-15.077-35.964c17.402-3.315 30.588-18.474 30.588-36.62C86.504 16.732 69.57 0 48.754 0S11.002 16.732 11.002 37.297c0 8.33 2.78 16.03 7.469 22.246L.143 103.259a1.834 1.834 0 00.335 1.943c.48.53 1.225.742 1.917.544l15.122-4.33 7.594 13.626a1.878 1.878 0 001.745.955 1.871 1.871 0 001.627-1.14l14.523-34.64a1.843 1.843 0 00-1.014-2.418 1.882 1.882 0 00-2.447 1.001l-13.032 31.082-6.437-11.549a1.883 1.883 0 00-2.162-.885l-12.818 3.67 16.087-38.371a37.864 37.864 0 0027.57 11.848c1.123 0 2.232-.052 3.33-.147l16.941 40.409A1.87 1.87 0 0070.755 116c.68 0 1.31-.365 1.641-.958l7.594-13.626 15.122 4.33a1.889 1.889 0 001.918-.544c.48-.53.61-1.285.335-1.943zM14.75 37.297c0-18.524 15.254-33.595 34.004-33.595s34.003 15.071 34.003 33.596c0 18.524-15.254 33.594-34.003 33.594-18.75 0-34.004-15.07-34.004-33.594z" fill="#00A8EF"/><path d="M70.402 30.348a1.867 1.867 0 00-1.472-1.254l-12.607-2.09-5.908-11.2a1.876 1.876 0 00-1.661-.995c-.699 0-1.34.383-1.662.995l-5.908 11.2-12.607 2.09a1.867 1.867 0 00-1.472 1.254 1.835 1.835 0 00.445 1.869l8.956 9.012-1.884 12.492a1.84 1.84 0 00.752 1.77 1.894 1.894 0 001.936.16l11.444-5.63 11.442 5.63a1.893 1.893 0 001.937-.16 1.841 1.841 0 00.752-1.77L61.002 41.23l8.955-9.012c.49-.493.66-1.213.445-1.87zm-12.728 8.945a1.837 1.837 0 00-.516 1.57l1.491 9.89-9.06-4.457a1.894 1.894 0 00-1.67 0l-9.06 4.457 1.49-9.89a1.837 1.837 0 00-.515-1.57l-7.091-7.136 9.981-1.655a1.872 1.872 0 001.352-.97l4.678-8.867 4.677 8.868c.272.514.772.873 1.352.97l9.982 1.655-7.091 7.135z" fill="#00A8EF"/><path d="M77.135 39.165a1.868 1.868 0 00-2.104 1.592c-1.737 12.959-13.035 22.732-26.278 22.732-14.617 0-26.51-11.75-26.51-26.191 0-14.443 11.893-26.192 26.51-26.192 13.244 0 24.54 9.773 26.278 22.733a1.869 1.869 0 002.104 1.592 1.855 1.855 0 001.611-2.079C76.763 18.56 63.869 7.404 48.753 7.404c-16.683 0-30.256 13.41-30.256 29.894 0 16.483 13.573 29.893 30.256 29.893 15.115 0 28.01-11.156 29.993-25.948a1.855 1.855 0 00-1.611-2.078z" fill="#00A8EF"/></svg><svg fill="none" viewBox="0 0 116 116" id="icon-card3" xmlns="http://www.w3.org/2000/svg"><g clip-path="url(#dclip0)" fill="#F1F1F1"><path d="M115.737 51.111l-10.117-3.344a46.753 46.753 0 00-1.691-6.332l7.104-7.966-.694-1.428a57.293 57.293 0 00-4.136-7.146l-.89-1.31-10.401 2.165a48.139 48.139 0 00-4.662-4.664l2.163-10.4-1.31-.892a56.974 56.974 0 00-7.151-4.135l-1.426-.69-7.961 7.104a47.224 47.224 0 00-6.332-1.691L64.89.265 63.309.15a57.515 57.515 0 00-8.281 0l-1.58.114-3.345 10.119a47.32 47.32 0 00-6.331 1.691L35.806 4.97l-1.428.695a57.28 57.28 0 00-7.146 4.135l-1.308.89 2.165 10.402a48.14 48.14 0 00-4.664 4.661l-10.399-2.165-.89 1.31A56.978 56.978 0 008 32.048l-.69 1.426 7.1 7.961a47.235 47.235 0 00-1.691 6.332L2.602 51.11l-.116 1.58a57.048 57.048 0 00-.166 4.14c0 1.396.066 2.77.166 4.141l.114 1.58 10.116 3.345a46.857 46.857 0 001.691 6.331l-7.103 7.966.694 1.428a57.28 57.28 0 004.135 7.147l.891 1.31 10.401-2.165a48.117 48.117 0 004.662 4.663l-2.163 10.401 1.31.891a57.059 57.059 0 007.15 4.136l1.427.689 7.963-7.099a47.28 47.28 0 006.332 1.691l3.344 10.117 1.58.114a58.38 58.38 0 004.138.163c1.395 0 2.77-.066 4.14-.166l1.58-.114 3.345-10.116a46.905 46.905 0 006.332-1.691l7.966 7.103 1.428-.694a57.279 57.279 0 007.146-4.135l1.31-.891-2.165-10.4a48.14 48.14 0 004.664-4.662l10.401 2.162.891-1.31a57.057 57.057 0 004.135-7.15l.69-1.427-7.104-7.96a47.372 47.372 0 001.691-6.332l10.117-3.345.113-1.58c.102-1.371.169-2.745.169-4.14 0-1.395-.067-2.77-.166-4.14l-.114-1.58zm-4.515 7.943l-9.794 3.237-.232 1.42a42.317 42.317 0 01-2.191 8.202l-.507 1.34 6.864 7.704a51.012 51.012 0 01-2.217 3.83l-10.06-2.094-.91 1.113a43.148 43.148 0 01-6.037 6.036l-1.113.91 2.096 10.059a53.526 53.526 0 01-3.83 2.219l-7.703-6.869-1.343.512a42.317 42.317 0 01-8.2 2.189l-1.42.232-3.237 9.794c-1.471.074-2.975.074-4.446 0l-3.238-9.794-1.419-.232a42.087 42.087 0 01-8.2-2.191l-1.343-.51-7.703 6.867a51.71 51.71 0 01-3.83-2.217l2.093-10.06-1.113-.91a43.143 43.143 0 01-6.035-6.037l-.91-1.113-10.06 2.096a53.418 53.418 0 01-2.22-3.83l6.87-7.703-.512-1.343a42.315 42.315 0 01-2.188-8.2l-.232-1.42-9.795-3.237a45.973 45.973 0 01.007-4.444l9.795-3.238.232-1.419a42.085 42.085 0 012.19-8.2l.51-1.343-6.867-7.703a51.466 51.466 0 012.217-3.83l10.06 2.094.91-1.114a43.148 43.148 0 016.038-6.035l1.113-.91-2.096-10.06a53.418 53.418 0 013.83-2.219l7.703 6.867 1.34-.507c2.641-1 5.4-1.736 8.203-2.191l1.419-.232 3.238-9.795a44.893 44.893 0 014.446 0l3.238 9.795 1.419.232a42.087 42.087 0 018.2 2.19l1.343.51 7.703-6.867a51.45 51.45 0 013.83 2.217l-2.094 10.06 1.114.91a43.148 43.148 0 016.035 6.038l.91 1.113 10.059-2.096a53.538 53.538 0 012.22 3.83l-6.87 7.703.512 1.343a42.344 42.344 0 012.189 8.2l.232 1.419 9.795 3.238c.028.734.049 1.476.049 2.222s-.021 1.487-.057 2.221z"/><path d="M58.479 23.68c-12.291.348-22.602 10.63-22.983 22.921a23.57 23.57 0 008.167 18.64c3.833 3.316 6.03 7.96 6.03 12.909v11.843H56.8v4.738h4.737v-4.738h7.106V77.99c0-4.738 2.243-9.425 6.156-12.858a23.654 23.654 0 008.056-17.774c0-6.457-2.549-12.488-7.18-16.988-4.628-4.498-10.753-6.805-17.196-6.69zm5.427 61.576H54.43v-4.737h9.475v4.737zm7.769-23.687c-4.311 3.785-7.018 8.826-7.634 14.212h-2.504V53.075l6.412-6.412-3.35-3.35-5.43 5.432-5.432-5.431-3.35 3.349 6.413 6.412V75.78h-2.487c-.58-5.356-3.26-10.41-7.552-14.122a18.86 18.86 0 01-6.533-14.91c.306-9.83 8.551-18.055 18.384-18.332 5.182-.178 10.057 1.748 13.762 5.349 3.704 3.6 5.744 8.425 5.744 13.591a18.911 18.911 0 01-6.443 14.212z"/></g><defs><clipPath id="dclip0"><path fill="#fff" d="M0 0h116v116H0z"/></clipPath></defs></svg><svg viewBox="0 0 60 60" id="instagram" xmlns="http://www.w3.org/2000/svg"><path fill-rule="evenodd" clip-rule="evenodd" d="M40 5H20C11.716 5 5 11.716 5 20v20c0 8.284 6.716 15 15 15h20c8.284 0 15-6.716 15-15V20c0-8.284-6.716-15-15-15zM10 20c0-5.523 4.477-10 10-10h20c5.523 0 10 4.477 10 10v20c0 5.523-4.477 10-10 10H20c-5.523 0-10-4.477-10-10V20zm20 22.5c-6.904 0-12.5-5.596-12.5-12.5S23.096 17.5 30 17.5 42.5 23.096 42.5 30 36.904 42.5 30 42.5zm0-5a7.5 7.5 0 100-15 7.5 7.5 0 000 15zm15-20a2.5 2.5 0 11-5 0 2.5 2.5 0 015 0z"/></svg><svg viewBox="0 0 60 60" id="linkedin" xmlns="http://www.w3.org/2000/svg"><path fill-rule="evenodd" clip-rule="evenodd" d="M10 5h40a5 5 0 015 5v40a5 5 0 01-5 5H10a5 5 0 01-5-5V10a5 5 0 015-5zm0 5v40h40V10H10zm22.5 12.5c-1.294 0-2.662.396-3.87 1.13L27.5 22.5H25V40h5V30c0-1.44 1.485-2.5 2.5-2.5H35c1.015 0 2.5 1.06 2.5 2.5v10h5V30c0-4.632-4.015-7.5-7.5-7.5h-2.5zM20 20a2.5 2.5 0 100-5 2.5 2.5 0 000 5zm-2.5 2.5V40h5V22.5h-5z"/></svg><svg viewBox="0 0 60 60" id="twitter" xmlns="http://www.w3.org/2000/svg"><path fill-rule="evenodd" clip-rule="evenodd" d="M52.799 11.736l3.537.413-1.59 3.186a6322.52 6322.52 0 01-2.328 4.662c-.093.329-.254.617-.494.993-.1.157-.442.656-.458.68-.09.135-.157.242-.205.328v5.971c0 15.28-14.787 24.99-28.752 24.99-2.858 0-5.029-.137-7.515-.68-4.091-.892-7.136-2.667-8.53-5.769l-1.433-3.193 3.485-.32c3.154-.29 5.888-.891 7.988-1.696-5.765-.927-8.995-3.459-8.995-8.214v-2.5h2.5c.55 0 1.045-.044 1.487-.126-4.326-2.587-6.493-6.736-6.493-12.492l-.002-.508c-.016-2.9.14-4.45.934-6.43A11.458 11.458 0 018.17 7.515l1.886-2.049 1.834 2.096c6.045 6.908 12.02 11.1 18.12 11.606.026-6.374 4.844-11.198 11.25-11.198 2.988 0 5.697 1.134 7.826 3.178 1.166.24 2.403.436 3.713.589zm-5.527 4.135l-.767-.173-.53-.581c-1.279-1.405-2.885-2.147-4.714-2.147-3.658 0-6.25 2.606-6.25 6.25 0 .595-.016.97-.09 1.462-.296 1.962-1.397 3.538-3.66 3.538-7.496 0-14.258-4.015-20.851-10.873-.34 1.033-.42 2.095-.409 4.087.002.267.002.267.002.536 0 5.12 2.074 7.92 6.986 9.482l1.742.553v1.83c0 2.217-2.1 4.304-5.174 5.239 1.409 1.069 4.29 1.646 8.953 1.646h2.5v2.5c0 3.582-4.116 6.386-10.333 7.85 2.027.622 4.727.89 7.832.89 11.536 0 23.752-8.022 23.752-19.99v-6.25c0-.735.213-1.372.567-2.035.138-.26.29-.506.478-.788l.271-.399.198-.396.963-1.927a42.083 42.083 0 01-1.466-.304z"/></svg></svg>